<?xml version="1.0" encoding="UTF-8"?>
<svg id="uuid-49aec5f1-2dd5-4140-b160-bcd351f4499f" data-name="busness" xmlns="http://www.w3.org/2000/svg" viewBox="0 0 2500 1600">
  <defs>
    <style>
      .uuid-6f559109-868a-4edd-a63b-595e67690fec {
        fill: #415e68;
      }

      .uuid-6f559109-868a-4edd-a63b-595e67690fec, .uuid-12bfdf33-434b-48b3-aca9-ba9973f8f934, .uuid-4cc5e5ca-f3f4-41f1-887b-84f2cf156a75, .uuid-821614d7-c440-43f5-8834-4775ccbc8bb3, .uuid-dc20934a-c677-44cc-8639-304378ef4767, .uuid-14514219-3fbb-4e7e-bb29-76507839b9ae, .uuid-e1c5cbbc-3f70-42e1-accf-5e94f4d8a961, .uuid-bd513a7f-1069-49ff-b899-9e7ba7452eed, .uuid-7a0176f1-a57b-47af-aa8c-e7690b21fc37, .uuid-5bcbc4e4-5096-4a8f-ac74-f51c01d5bc03, .uuid-0906a16f-10df-45dc-9b6d-f60ac7214f68, .uuid-41b4280b-16cf-4b6a-b6e0-741edcbc4ebf, .uuid-60c6eaaf-9b65-4b39-a28e-4de48a57808a, .uuid-d1834a99-715f-49f9-ae82-b650f7941e2c, .uuid-7af5b8a0-3ba7-46a2-9d74-e007d848782c, .uuid-bc113138-1b2e-49da-9680-27e244a64a21, .uuid-5e59bd65-83df-4ef5-94f0-1ae6233e911e, .uuid-6ab91931-15a9-4f1b-8f62-9736a3e16725, .uuid-b0f1d1e3-3f12-44ec-aeb2-619be45800c9, .uuid-fb0f7dfe-3417-46e1-95f9-155941edce21, .uuid-17c13cdb-823f-43b7-b149-8846d78552ff, .uuid-9e366396-5831-4e8a-96e7-88eccce3239f, .uuid-e1ceee82-52c6-4323-b05b-aa281484d51e, .uuid-109edd4f-ed1a-4bbb-b9f2-7731ca167436, .uuid-67b086d1-09d6-4902-8d4e-c9627f41fed1, .uuid-846d2c6c-563d-47cf-9284-6a47e4b3cea2, .uuid-006c9542-e16f-4100-b4f9-bb26918bf401, .uuid-9e1efaa2-f911-4af7-9457-7513878b2802, .uuid-2652d750-2e18-4dcf-a3d8-7740609691e8, .uuid-7fd7d875-b711-45cc-b31f-145e69cd0cfc, .uuid-07b142c5-5d0d-4138-a011-5e1c119816ff, .uuid-aa271918-8e42-47b4-ba3d-65ac741be2b9, .uuid-c5643bea-9188-4011-8e4c-1c9a4ffe7faf, .uuid-3ebc9b08-8236-4d8d-8aca-5cfbad041b76, .uuid-3960685f-d773-423d-9554-a9ab77ea9b55, .uuid-657c17c0-1e89-46bf-91ff-fb6a0ba569db, .uuid-85b00d1a-8034-4895-9e40-572982880fc1, .uuid-cb52c87c-6c38-4e76-82e2-c65833833f26, .uuid-0a9ad94d-2fda-4dac-907e-d32f57dd9aa5, .uuid-1a982c74-84ce-4576-aed5-c1e349e2c0fd, .uuid-dfd9c865-f59c-46f0-9416-ab663d9b306d, .uuid-4ee55bb7-dccf-4761-9593-785f309e5daf, .uuid-a9cf8c8d-8c1f-40a1-9d03-7096ba53b300, .uuid-7e4eedf9-c7a9-411c-93a3-43b19fbbc7eb, .uuid-abee9f4c-81ef-40d2-962a-dea8744e84c1, .uuid-ba9dc047-4c9e-43e0-88e7-ed370a7c223c, .uuid-85363c84-db01-4e5e-80f3-ab32c20b0cc2, .uuid-33d6f94c-eaf3-4f1d-88b8-3d897e7cbe6f, .uuid-c66996a4-99d2-4d70-8700-6daa6c13e429 {
        stroke-width: 0px;
      }

      .uuid-12bfdf33-434b-48b3-aca9-ba9973f8f934 {
        fill: #243c42;
      }

      .uuid-4cc5e5ca-f3f4-41f1-887b-84f2cf156a75 {
        fill: #c1c1c1;
      }

      .uuid-821614d7-c440-43f5-8834-4775ccbc8bb3 {
        fill: #ffa07e;
      }

      .uuid-dc20934a-c677-44cc-8639-304378ef4767 {
        fill: #44877a;
      }

      .uuid-14514219-3fbb-4e7e-bb29-76507839b9ae {
        fill: #415b74;
      }

      .uuid-e1c5cbbc-3f70-42e1-accf-5e94f4d8a961 {
        fill: #e83161;
      }

      .uuid-bd513a7f-1069-49ff-b899-9e7ba7452eed {
        fill: #e5e5e5;
      }

      .uuid-7a0176f1-a57b-47af-aa8c-e7690b21fc37 {
        fill: #f7b854;
      }

      .uuid-5bcbc4e4-5096-4a8f-ac74-f51c01d5bc03 {
        fill: #f7f7f7;
      }

      .uuid-0906a16f-10df-45dc-9b6d-f60ac7214f68 {
        fill: #54271c;
      }

      .uuid-41b4280b-16cf-4b6a-b6e0-741edcbc4ebf {
        fill: #e0e0e0;
      }

      .uuid-60c6eaaf-9b65-4b39-a28e-4de48a57808a {
        fill: #182023;
      }

      .uuid-d1834a99-715f-49f9-ae82-b650f7941e2c {
        fill: #ffb694;
      }

      .uuid-7af5b8a0-3ba7-46a2-9d74-e007d848782c {
        fill: #e0784f;
      }

      .uuid-bc113138-1b2e-49da-9680-27e244a64a21 {
        fill: #f5f5f5;
      }

      .uuid-5e59bd65-83df-4ef5-94f0-1ae6233e911e {
        fill: #a89894;
      }

      .uuid-6ab91931-15a9-4f1b-8f62-9736a3e16725 {
        fill: #a5543c;
      }

      .uuid-b0f1d1e3-3f12-44ec-aeb2-619be45800c9 {
        fill: #f79876;
      }

      .uuid-fb0f7dfe-3417-46e1-95f9-155941edce21 {
        fill: #375468;
      }

      .uuid-17c13cdb-823f-43b7-b149-8846d78552ff {
        fill: #5b1f07;
      }

      .uuid-9e366396-5831-4e8a-96e7-88eccce3239f {
        fill: #fff;
      }

      .uuid-e1ceee82-52c6-4323-b05b-aa281484d51e {
        fill: #569187;
      }

      .uuid-109edd4f-ed1a-4bbb-b9f2-7731ca167436 {
        fill: #ce6541;
      }

      .uuid-67b086d1-09d6-4902-8d4e-c9627f41fed1 {
        fill: #7fb2aa;
      }

      .uuid-846d2c6c-563d-47cf-9284-6a47e4b3cea2 {
        fill: #3f586d;
      }

      .uuid-006c9542-e16f-4100-b4f9-bb26918bf401 {
        fill: #ffc3ab;
      }

      .uuid-9e1efaa2-f911-4af7-9457-7513878b2802 {
        fill: #263238;
      }

      .uuid-2652d750-2e18-4dcf-a3d8-7740609691e8 {
        fill: #d1d1d1;
      }

      .uuid-7fd7d875-b711-45cc-b31f-145e69cd0cfc {
        fill: #78949e;
      }

      .uuid-07b142c5-5d0d-4138-a011-5e1c119816ff {
        fill: #ffd7c7;
      }

      .uuid-aa271918-8e42-47b4-ba3d-65ac741be2b9 {
        fill: #ea8368;
      }

      .uuid-c5643bea-9188-4011-8e4c-1c9a4ffe7faf {
        fill: #913624;
      }

      .uuid-3ebc9b08-8236-4d8d-8aca-5cfbad041b76 {
        fill: #dbdbdb;
      }

      .uuid-3960685f-d773-423d-9554-a9ab77ea9b55 {
        fill: #edefef;
      }

      .uuid-657c17c0-1e89-46bf-91ff-fb6a0ba569db {
        fill: #c6c6c6;
      }

      .uuid-85b00d1a-8034-4895-9e40-572982880fc1 {
        fill: #38505b;
      }

      .uuid-cb52c87c-6c38-4e76-82e2-c65833833f26 {
        fill: #97d6ce;
      }

      .uuid-0a9ad94d-2fda-4dac-907e-d32f57dd9aa5 {
        fill: #d6d6d6;
      }

      .uuid-1a982c74-84ce-4576-aed5-c1e349e2c0fd {
        fill: #81c1b8;
      }

      .uuid-dfd9c865-f59c-46f0-9416-ab663d9b306d {
        fill: #b21919;
      }

      .uuid-4ee55bb7-dccf-4761-9593-785f309e5daf {
        fill: #f4946e;
      }

      .uuid-a9cf8c8d-8c1f-40a1-9d03-7096ba53b300 {
        fill: #7bb7ae;
      }

      .uuid-7e4eedf9-c7a9-411c-93a3-43b19fbbc7eb {
        fill: #385770;
      }

      .uuid-abee9f4c-81ef-40d2-962a-dea8744e84c1 {
        fill: #ffc9b6;
      }

      .uuid-ba9dc047-4c9e-43e0-88e7-ed370a7c223c {
        fill: #ffe7de;
      }

      .uuid-85363c84-db01-4e5e-80f3-ab32c20b0cc2 {
        fill: #e89879;
      }

      .uuid-33d6f94c-eaf3-4f1d-88b8-3d897e7cbe6f {
        fill: #ffcb80;
      }

      .uuid-c66996a4-99d2-4d70-8700-6daa6c13e429 {
        fill: #adadad;
      }
    </style>
  </defs>
  <path class="uuid-5bcbc4e4-5096-4a8f-ac74-f51c01d5bc03" d="m302.27,1410.18c-10.84-.39-241.35-248.65-135.22-488.02,18.13-40.89,32.37-83.42,42.71-126.94,39.43-165.9,134.02-288.04,304.87-328.43,195.52-46.22,227.22-144.22,479.67-39.18,252.44,105.04,322.45,25.95,451.29-119.17,128.84-145.12,755.66-261.25,807.29,290.69,33.34,356.46,11.58,570.78,8.7,692.77-1.69,71.51-58.84,129.33-130.34,131.52-612.12,18.73-1503.59-1.4-1828.96-13.24Z"/>
  <g>
    <path class="uuid-41b4280b-16cf-4b6a-b6e0-741edcbc4ebf" d="m880.39,534.94c22.91-7.18,69.6,19.64,80.46,46.84,28.89,72.35,112.19,276.05,103.74,308.74-12.54,48.57-43.52,82.59-119.56,8.92-68.75-66.6-186.18-326.4-64.64-364.5Z"/>
    <polygon class="uuid-2652d750-2e18-4dcf-a3d8-7740609691e8" points="930.14 591.25 974.26 827.29 939.42 840.65 930.14 591.25"/>
    <g>
      <path class="uuid-0906a16f-10df-45dc-9b6d-f60ac7214f68" d="m943.46,247.88c-.38,0-.75.03-1.12.06.73-2.33,1.12-4.81,1.12-7.38,0-13.65-11.06-24.71-24.71-24.71-1.43,0-2.83.15-4.19.38-3.88-11.41-14.66-19.64-27.39-19.64-.83,0-1.65.06-2.46.12-6.2-18.25-23.47-31.39-43.82-31.39-16.62,0-31.19,8.77-39.35,21.92-11.98-10.19-29.96-8.96-40.42,2.87-3.9,4.41-6.2,9.68-6.97,15.11-15.33-2.7-31.66,2.39-42.73,14.91-13.49,15.24-15.09,36.88-5.53,53.62-.59.56-1.17,1.14-1.73,1.76-8.43,9.53-9.42,23.06-3.44,33.53-1.08.87-2.12,1.81-3.07,2.89-9.04,10.22-8.09,25.84,2.13,34.88,1.93,1.7,4.04,3.05,6.27,4.05-.27.26-.54.52-.79.8-6.36,7.19-5.69,18.18,1.5,24.54,7.19,6.36,18.18,5.69,24.54-1.5,6.36-7.19,5.69-18.18-1.5-24.54-.28-.25-.58-.47-.88-.7,2.09-1.26,4.03-2.86,5.73-4.78,6.13-6.92,7.65-16.32,4.83-24.48,2.95-1.58,5.69-3.66,8.03-6.32,4.5-5.09,6.87-11.33,7.21-17.62,9.73-1.84,18.94-6.8,26.01-14.79,10.39-11.75,13.73-27.3,10.34-41.48,3.75-.74,7.25-2.19,10.33-4.23,8.14,13.27,22.77,22.12,39.48,22.12,10.67,0,20.48-3.62,28.31-9.68,4.94,3.92,11.18,6.28,17.97,6.28,3.54,0,6.92-.67,10.05-1.83,4.24,7.52,12.28,12.61,21.53,12.61,2.57,0,5.05-.39,7.38-1.12-.02.37-.06.74-.06,1.12,0,9.6,7.78,17.38,17.39,17.38s17.38-7.78,17.38-17.38-7.78-17.38-17.38-17.38Z"/>
      <path class="uuid-0906a16f-10df-45dc-9b6d-f60ac7214f68" d="m873.49,202.99c-.3.2-.58.42-.87.64-.67-2.29-1.68-4.53-3.06-6.63-7.32-11.17-22.11-14.42-33.04-7.26-1.15.75-2.18,1.6-3.15,2.51-9.23-7.31-22.27-8.38-32.46-1.71-.67.44-1.29.91-1.91,1.39-14.75-11.69-35.63-13.38-51.92-2.71-13.31,8.72-20.27,23.53-19.74,38.58-15.05-2.06-28.79,8.38-30.83,23.55-.76,5.66.23,11.18,2.52,16.02-13.72,5.83-24.06,18.57-26.22,34.62-2.62,19.55,7.7,38.1,24.33,46.79-.17.77-.33,1.55-.44,2.35-1.64,12.23,4.82,23.82,15.22,29.25-.4,1.28-.72,2.6-.91,3.97-1.76,13.11,7.38,25.39,20.41,27.43,2.46.38,4.87.38,7.2.02-.07.36-.15.71-.2,1.07-1.24,9.22,5.19,17.86,14.36,19.3,9.17,1.44,17.61-4.88,18.84-14.1,1.24-9.22-5.19-17.86-14.36-19.3-.36-.06-.72-.08-1.08-.11,1-2.13,1.69-4.45,2.02-6.92,1.19-8.88-2.63-17.37-9.26-22.57,1.52-2.84,2.59-5.98,3.04-9.38.88-6.53-.57-12.87-3.68-18.21,6.8-6.61,11.52-15.5,12.89-25.75,2.02-15.07-3.65-29.55-13.97-39.37,2.61-2.57,4.63-5.6,6-8.88,13.63,6.59,30.1,6.16,43.47-2.6,8.54-5.6,14.46-13.7,17.47-22.77,6.06.62,12.32-.72,17.76-4.29,2.83-1.86,5.18-4.18,7.07-6.77,7.43,3.93,16.6,3.88,24-.98,2.06-1.35,3.83-2.97,5.31-4.79.18.32.35.64.56.95,5.15,7.86,15.56,10.15,23.24,5.11s9.74-15.49,4.59-23.35c-5.15-7.86-15.55-10.15-23.24-5.11Z"/>
      <path class="uuid-6ab91931-15a9-4f1b-8f62-9736a3e16725" d="m939.92,342.98c4.27,2.17,8.55,4.34,12.82,6.52,1.16.59,2.76.34,3.42-.9.6-1.14.35-2.79-.9-3.42-4.27-2.17-8.55-4.34-12.82-6.52-1.16-.59-2.76-.34-3.42.9-.6,1.14-.35,2.79.9,3.42h0Z"/>
      <g>
        <path class="uuid-5e59bd65-83df-4ef5-94f0-1ae6233e911e" d="m860.39,499.04c-32.63-14.73-69.47-18.11-109.24-13.61l78.94,49.51,30.31-35.9Z"/>
        <path class="uuid-9e1efaa2-f911-4af7-9457-7513878b2802" d="m923.08,1075.33l42.8,337.84-375.98,5.96s-51.3-270.32,40.91-370.13l292.24,8.32.03,18.02Z"/>
        <polygon class="uuid-7af5b8a0-3ba7-46a2-9d74-e007d848782c" points="850.01 486.32 850.01 529.67 751.94 529.67 749.57 397.25 850.01 486.32"/>
        <path class="uuid-109edd4f-ed1a-4bbb-b9f2-7731ca167436" d="m750.01,420.04l34.13,7.86,65.87,58.41v27.23c-85.77-7.28-95.03-84.04-99.98-92.79v-.71Z"/>
        <path class="uuid-7af5b8a0-3ba7-46a2-9d74-e007d848782c" d="m733.94,329.84c0,73.03,8.94,141,97.03,156.75,13.49,2.41,37.94.84,51.5-1.16,35.86-5.28,63.29-41.07,58.36-145.46,8.04-94.97-47.38-113.88-87.78-113.88s-119.12,24.81-119.12,103.76Z"/>
        <path class="uuid-aa271918-8e42-47b4-ba3d-65ac741be2b9" d="m921.47,254.14c11.36,17.28,17.77,42.65,14.66,79.43,4.93,104.39-22.5,140.18-58.36,145.46-13.56,2-38.01,3.58-51.5,1.16-32.85-5.87-54.69-19.01-69.16-36.96,14.31,21.22,37.24,36.8,73.88,43.35,13.49,2.41,37.94.84,51.5-1.16,35.86-5.28,63.29-41.07,58.36-145.46,3.52-41.6-5.13-68.61-19.37-85.82Z"/>
        <path class="uuid-dfd9c865-f59c-46f0-9416-ab663d9b306d" d="m879.76,428.26c-11.38,6.84-24.52,6.08-32.17-4.71,0,0,3.79,22.47,19.55,22.51,8.83.02,12.62-17.8,12.62-17.8Z"/>
        <path class="uuid-109edd4f-ed1a-4bbb-b9f2-7731ca167436" d="m876.19,362.02c3.52,4.33,6.21,8.97,8.69,13.68,2.44,4.73,4.56,9.58,6.41,14.54l.34.95.39,1.23c.22.82.42,1.65.53,2.48.21,1.66.26,3.31.08,4.95-.18,1.63-.54,3.25-1.17,4.82-.61,1.57-1.48,3.1-2.7,4.49-.6.7-1.35,1.32-2.15,1.87-.7.44-1.38.81-2.12,1.11-1.45.62-2.93,1.05-4.41,1.3-2.99.41-5.89.18-8.56-.75v-.5c2.62-.05,5.24-.42,7.68-1.3,1.22-.44,2.4-.98,3.5-1.66.55-.34,1.08-.72,1.58-1.11.47-.4.91-.85,1.29-1.36,1.49-2.05,2.2-4.64,2.35-7.2.14-2.58-.27-5.14-1.3-7.55l-5.48-14.88-2.74-7.44-2.67-7.47.47-.18Z"/>
        <g>
          <path class="uuid-17c13cdb-823f-43b7-b149-8846d78552ff" d="m833.95,341.44c.06,8.33-4.16,15.13-9.44,15.18-5.28.05-9.6-6.66-9.67-15-.06-8.33,4.16-15.13,9.44-15.18,5.28-.05,9.6,6.66,9.67,15Z"/>
          <path class="uuid-9e366396-5831-4e8a-96e7-88eccce3239f" d="m826.69,335.59c.02,2.4-1.01,4.36-2.3,4.37-1.29.01-2.35-1.93-2.36-4.33-.02-2.4,1.01-4.36,2.3-4.37,1.29-.01,2.35,1.93,2.36,4.33Z"/>
        </g>
        <g>
          <path class="uuid-17c13cdb-823f-43b7-b149-8846d78552ff" d="m913.66,341.44c.06,8.33-4.16,15.13-9.44,15.18-5.28.05-9.6-6.66-9.67-15-.06-8.33,4.16-15.13,9.44-15.18,5.28-.05,9.6,6.66,9.67,15Z"/>
          <path class="uuid-9e366396-5831-4e8a-96e7-88eccce3239f" d="m906.39,335.59c.02,2.4-1.01,4.36-2.3,4.37-1.29.01-2.35-1.93-2.36-4.33-.02-2.4,1.01-4.36,2.3-4.37,1.29-.01,2.35,1.93,2.36,4.33Z"/>
        </g>
        <ellipse class="uuid-7af5b8a0-3ba7-46a2-9d74-e007d848782c" cx="742.88" cy="367.18" rx="28.72" ry="35.92" transform="translate(-67.53 194.19) rotate(-14.25)"/>
        <path class="uuid-0906a16f-10df-45dc-9b6d-f60ac7214f68" d="m842.9,309.55c-4.04,1.15-7.43,1.92-10.71,2.84-3.26.9-6.34,1.8-9.4,2.79-3.06.99-6.08,2.07-9.25,3.25-3.19,1.17-6.4,2.53-10.35,3.95.76-4.17,3.12-7.68,6.04-10.53,2.95-2.84,6.59-4.93,10.49-6.19,3.9-1.25,8.08-1.69,12.13-1.11,4.03.6,8,2.06,11.06,4.99Z"/>
        <path class="uuid-0906a16f-10df-45dc-9b6d-f60ac7214f68" d="m924.34,318.24c-3.76-.39-6.73-.9-9.64-1.29l-8.27-1.14-8.28-1.05c-2.9-.38-5.9-.67-9.64-1.29,2.03-3.23,5.2-5.26,8.57-6.5,3.4-1.23,7.1-1.55,10.67-1.07,3.57.49,7.06,1.76,10.01,3.84,2.93,2.08,5.46,4.86,6.58,8.5Z"/>
        <path class="uuid-41b4280b-16cf-4b6a-b6e0-741edcbc4ebf" d="m751.15,485.43c-12.48,15.41-21.81,32.49-23.93,53.42l60.93,31.99,31.54-41.17-68.54-44.24Z"/>
        <path class="uuid-41b4280b-16cf-4b6a-b6e0-741edcbc4ebf" d="m860.39,499.04l-37.47,30.63,22.89,41.17,34.57-26.19c-1.34-16.08-9.13-31.1-19.99-45.61Z"/>
        <path class="uuid-41b4280b-16cf-4b6a-b6e0-741edcbc4ebf" d="m744.92,513.55s-132.38,37.59-154.31,57.29c-48.79,43.83,4.73,254.71,27.5,392.44,9.34,56.51-42.44,75.83-7.69,114.36l306.37-1.39c31.04,0,36.75-40.7,39.5-71.62l-18.3-322.64c1.01-28.97-4.65-128.69-31.6-139.38l-44.48-17.63-42.23,4.69-74.77-16.13Z"/>
        <path class="uuid-c66996a4-99d2-4d70-8700-6daa6c13e429" d="m953.79,1004.78l-16.02-322.77h0s0-.02,0-.02c.2-5.07.19-10.16.12-15.24-.08-5.08-.26-10.16-.5-15.24.31,5.07.57,10.15.72,15.24.15,5.08.23,10.17.1,15.26v-.02s20.58,322.52,20.58,322.52l-4.99.28Z"/>
        <path class="uuid-0a9ad94d-2fda-4dac-907e-d32f57dd9aa5" d="m593.47,808.43c-1.29-6.45-3.38-12.89-6.99-18.61,3.06,17.93,6.36,36.08,9.72,54.1.12-11.64.56-23.42-2.73-35.49Z"/>
        <path class="uuid-2652d750-2e18-4dcf-a3d8-7740609691e8" d="m956.29,1004.63l6.92-135.89c-33.23,2.87-21.58-69.12-140.28-47.29-69.49,12.78-82.86-59.09-115.32-119.83-20.91-39.97-40.37-79.93-60.72-119.48-10.42-20.25-36.81-26.48-54.81-12.52-.53.41-1.03.82-1.47,1.22-30.46,27.37-21.04,119.84-4.13,218.98,3.61,5.71,5.7,12.16,6.99,18.61,3.29,12.07,2.85,23.85,2.73,35.49,2.71,14.54,5.45,29,8.13,43.19,22.74,53.22,67.21,95.93,118.98,121.32,43.98,20.94,94.24,12.57,142.41,24.08,26.94,7.19,49.09,20.88,68.41,38.14,16.12-12.2,20.03-42.05,22.16-66.02Z"/>
        <path class="uuid-c66996a4-99d2-4d70-8700-6daa6c13e429" d="m819.94,534.92l2.19,16.86,1.97,16.88,3.76,33.78c1.15,11.27,2.23,22.55,3.29,33.83,1.06,11.28,1.96,22.58,2.88,33.87l1.32,16.95,1.16,16.96c.73,11.31,1.41,22.63,2.01,33.96.59,11.33,1,22.67,1.34,34.02.34,11.35.54,22.71.55,34.09-.08,11.38-.32,22.78-1.14,34.23-.42,5.73-.97,11.47-1.93,17.28-.5,2.91-1.06,5.83-2,8.84l-1.19,3.98c-.42,1.26-.72,2.6-1.05,3.93-.7,2.63-1.19,5.36-1.74,8.06-.48,2.73-.96,5.47-1.36,8.22-.38,2.77-.8,5.52-1.11,8.31-.34,2.78-.66,5.56-.92,8.36-.29,2.79-.54,5.59-.77,8.39-.25,2.8-.44,5.61-.66,8.41-.23,2.81-.41,5.62-.59,8.43-.19,2.81-.35,5.63-.5,8.44-.62,11.26-.98,22.55-1.34,33.85-.35,11.3-.54,22.6-.69,33.91-.2,11.31-.31,22.63-.33,33.95l.06,33.97-.5.02c-1.01-22.63-1.6-45.27-1.86-67.91-.24-22.65-.13-45.3.73-67.94.44-11.32,1.07-22.63,2.08-33.92.23-2.82.53-5.64.84-8.46.28-2.82.68-5.63,1.04-8.44.38-2.81.84-5.61,1.31-8.41.54-2.79,1.02-5.58,1.72-8.34.58-2.78,1.49-5.5,2.25-8.21.83-2.67,1.35-5.45,1.82-8.22.9-5.57,1.42-11.2,1.81-16.84.76-11.28.96-22.6,1-33.91.06-22.63-.64-45.27-1.6-67.88-.97-22.62-2.26-45.22-3.72-67.82-2.94-45.19-6.51-90.34-10.66-135.43l.5-.05Z"/>
        <path class="uuid-c66996a4-99d2-4d70-8700-6daa6c13e429" d="m727.33,538.63c5.57,1.73,10.95,3.82,16.3,5.97,2.65,1.12,5.34,2.16,7.96,3.34l7.88,3.5c5.17,2.48,10.4,4.87,15.5,7.48,2.57,1.28,5.1,2.62,7.65,3.93,2.53,1.36,5.07,2.68,7.58,4.07l-5.57,1.23c2.67-3.4,5.44-6.72,8.21-10.04,2.72-3.36,5.62-6.58,8.47-9.84,1.41-1.65,2.91-3.21,4.37-4.82,1.47-1.6,2.93-3.2,4.46-4.75,3.01-3.14,6.09-6.22,9.34-9.18l.4.3c-5.2,6.91-10.39,13.81-15.65,20.68l-15.71,20.63-.24.32-.36-.19c-10.19-5.28-20.29-10.7-30.45-16.04l-15.21-8.04-15.17-8.11.23-.44Z"/>
        <path class="uuid-c66996a4-99d2-4d70-8700-6daa6c13e429" d="m823.14,529.55c2.77,2.95,5.17,6.11,7.6,9.25l3.49,4.8,3.32,4.89c1.13,1.62,2.15,3.29,3.2,4.96,1.04,1.67,2.1,3.32,3.12,5,2.01,3.37,3.98,6.77,5.85,10.22l-6.62-1.39c1.45-1.08,2.89-2.16,4.37-3.21,1.46-1.06,2.94-2.11,4.45-3.11,2.99-2.03,5.97-4.09,9.08-5.98,3.05-1.96,6.21-3.77,9.38-5.58,3.21-1.74,6.43-3.48,9.85-4.95l.3.4c-5.71,4.44-11.43,8.85-17.19,13.23l-17.24,13.16-.45.35-.28-.5-11.38-20.62-5.68-10.31-5.61-10.35.44-.24Z"/>
        <path class="uuid-60c6eaaf-9b65-4b39-a28e-4de48a57808a" d="m827.8,1220.55c1.94,3.12-20.93,195.15-20.93,195.15h-28.01l48.93-195.15Z"/>
      </g>
      <path class="uuid-6ab91931-15a9-4f1b-8f62-9736a3e16725" d="m819.69,391.49c-24.92,0-45.19-23.12-45.19-51.53s20.27-51.53,45.19-51.53,45.19,23.12,45.19,51.53-20.27,51.53-45.19,51.53Zm0-99.06c-22.71,0-41.19,21.32-41.19,47.53s18.48,47.53,41.19,47.53,41.19-21.32,41.19-47.53-18.48-47.53-41.19-47.53Z"/>
      <path class="uuid-6ab91931-15a9-4f1b-8f62-9736a3e16725" d="m918.34,391.98c-22.03,0-39.95-23.12-39.95-51.53s17.92-51.53,39.95-51.53,39.95,23.12,39.95,51.53-17.92,51.53-39.95,51.53Zm0-99.06c-19.82,0-35.95,21.32-35.95,47.53s16.13,47.53,35.95,47.53,35.95-21.32,35.95-47.53-16.13-47.53-35.95-47.53Z"/>
      <path class="uuid-6ab91931-15a9-4f1b-8f62-9736a3e16725" d="m881.26,344.63c.47-2.74-.18-5.4-1.99-7.53-1.64-1.93-4.29-3.01-6.82-2.85-2.59.16-4.78,1.37-6.49,3.29-.68.77-1.29,1.6-1.96,2.38-.33.38-.67.76-1.05,1.1-.09.08-.59.46-.16.15-.24.17-.48.32-.73.46-1.14.64-1.62,2.3-.9,3.42.75,1.16,2.2,1.58,3.42.9,1.62-.9,2.79-2.27,3.93-3.69.55-.68,1.1-1.37,1.74-1.97.16-.15.32-.29.49-.43-.28.22-.06.06.11-.05.2-.12.4-.24.61-.34.16-.08.14-.07-.06.03.11-.04.22-.08.33-.11.19-.06.38-.1.57-.14.55-.13-.26-.03.27-.02.24,0,.47,0,.7,0,.68.03-.4-.13.26.04.23.06.45.12.68.19.47.13-.19-.16.26.12.17.1.34.19.5.3.15.1.13.08-.05-.05.09.07.17.15.26.22.14.13.26.27.4.4.37.38-.08-.21.16.21.11.2.23.39.34.59.32.58-.1-.4.1.24.07.22.14.43.19.65.03.13.08.77.05.23,0,.19.02.38.02.57,0,.12-.11.9-.01.35-.22,1.28.34,2.76,1.75,3.08,1.21.28,2.84-.37,3.08-1.75h0Z"/>
      <path class="uuid-6ab91931-15a9-4f1b-8f62-9736a3e16725" d="m737.26,333.08c12.78,6.27,25.56,12.53,38.35,18.8-.3-1.14-.6-2.28-.9-3.42-.2.28-.39.55-.59.83-.78,1.1-.2,2.78.9,3.42,1.25.73,2.64.21,3.42-.9l.59-.83c.74-1.05.24-2.86-.9-3.42-12.78-6.27-25.56-12.53-38.35-18.8-1.21-.59-2.7-.33-3.42.9-.64,1.1-.32,2.82.9,3.42h0Z"/>
      <path class="uuid-0906a16f-10df-45dc-9b6d-f60ac7214f68" d="m935.93,255.83c-.21,0-.42.02-.64.03.41-1.32.64-2.72.64-4.18,0-7.73-6.26-13.99-13.99-13.99-.81,0-1.6.08-2.37.22-2.2-6.46-8.3-11.12-15.51-11.12-.47,0-.93.03-1.39.07-3.51-10.33-13.29-17.77-24.81-17.77-9.46,0-17.74,5.01-22.35,12.52-2.59-1.71-5.69-2.71-9.02-2.71-9.05,0-16.39,7.34-16.39,16.39s7.34,16.39,16.39,16.39c3.33,0,6.43-1,9.02-2.71,4.61,7.51,12.89,12.52,22.35,12.52,6.04,0,11.6-2.05,16.03-5.48,2.8,2.22,6.33,3.56,10.18,3.56,2,0,3.92-.38,5.69-1.04,2.4,4.26,6.95,7.14,12.19,7.14,1.46,0,2.86-.22,4.18-.64-.01.21-.03.42-.03.64,0,5.44,4.41,9.84,9.84,9.84s9.84-4.41,9.84-9.84-4.41-9.84-9.84-9.84Z"/>
      <path class="uuid-0906a16f-10df-45dc-9b6d-f60ac7214f68" d="m948.29,280.79c-.2-.09-.4-.16-.59-.23.92-1.04,1.69-2.23,2.29-3.55,3.16-7.05,0-15.33-7.05-18.49-.74-.33-1.5-.58-2.26-.77.64-6.8-3.03-13.54-9.61-16.49-.43-.19-.86-.35-1.3-.51,1.02-10.87-4.86-21.65-15.37-26.36-8.63-3.87-18.24-2.68-25.52,2.29-1.66-2.62-4.08-4.8-7.12-6.16-8.26-3.7-17.96,0-21.66,8.26-3.7,8.26,0,17.96,8.26,21.66,3.04,1.36,6.28,1.72,9.34,1.21,1.13,8.74,6.65,16.7,15.28,20.57,5.51,2.47,11.42,2.87,16.87,1.55,1.64,3.17,4.32,5.83,7.83,7.41,1.83.82,3.73,1.26,5.62,1.38.45,4.87,3.43,9.36,8.21,11.5,1.33.6,2.7.97,4.07,1.13-.1.19-.2.37-.29.57-2.22,4.96,0,10.78,4.96,13.01,4.96,2.22,10.78,0,13.01-4.96,2.22-4.96,0-10.78-4.96-13.01Z"/>
      <path class="uuid-0906a16f-10df-45dc-9b6d-f60ac7214f68" d="m943.63,242.09c-.2-.09-.4-.16-.59-.23.92-1.04,1.69-2.23,2.29-3.55,3.16-7.05,0-15.33-7.05-18.49-.74-.33-1.5-.58-2.26-.77.64-6.8-3.03-13.54-9.61-16.49-.43-.19-.86-.35-1.3-.51,1.02-10.87-4.86-21.65-15.37-26.36-8.63-3.87-18.24-2.68-25.52,2.29-1.66-2.62-4.08-4.8-7.12-6.16-8.26-3.7-17.96,0-21.66,8.26-3.7,8.26,0,17.96,8.26,21.66,3.04,1.36,6.28,1.72,9.34,1.21,1.13,8.74,6.65,16.7,15.28,20.57,5.51,2.47,11.42,2.87,16.87,1.55,1.64,3.17,4.32,5.83,7.83,7.41,1.83.82,3.73,1.26,5.62,1.38.45,4.87,3.43,9.36,8.21,11.5,1.33.6,2.7.97,4.07,1.13-.1.19-.2.37-.29.57-2.22,4.96,0,10.78,4.96,13.01s10.78,0,13.01-4.96c2.22-4.96,0-10.78-4.96-13.01Z"/>
      <path class="uuid-0906a16f-10df-45dc-9b6d-f60ac7214f68" d="m809.71,223.16c-.09.24-.16.48-.24.72-1.29-1.02-2.75-1.87-4.37-2.49-8.58-3.3-18.21.99-21.51,9.57-.35.9-.59,1.81-.77,2.73-8.11-.32-15.89,4.48-18.96,12.48-.2.52-.36,1.05-.52,1.58-12.98-.51-25.41,7.18-30.32,19.97-4.04,10.51-2,21.85,4.38,30.17-3,2.15-5.44,5.16-6.86,8.86-3.86,10.05,1.16,21.33,11.21,25.2,10.05,3.86,21.33-1.16,25.2-11.21,1.42-3.7,1.63-7.57.84-11.18,10.31-1.91,19.41-8.98,23.45-19.48,2.58-6.71,2.67-13.75.75-20.14,3.66-2.16,6.65-5.51,8.29-9.79.86-2.23,1.25-4.51,1.28-6.76,5.75-.85,10.89-4.68,13.13-10.49.62-1.62.97-3.27,1.08-4.91.23.11.45.22.69.31,6.04,2.32,12.81-.7,15.13-6.73,2.32-6.04-.7-12.81-6.73-15.13-6.04-2.32-12.81.7-15.13,6.73Z"/>
    </g>
    <path class="uuid-2652d750-2e18-4dcf-a3d8-7740609691e8" d="m586.16,785.55c6.99,24.33,13.01,48.75,18.64,73.28l2.14,9.19,2,9.22,3.97,18.46c2.52,12.34,4.87,24.71,7.21,37.1l3.12,18.67,1.5,9.35c.26,1.5.45,3.29.67,4.94.26,1.67.31,3.38.4,5.08.69,13.61-2.09,27.47-7.51,39.43-2.62,6.02-5.53,11.76-8.43,17.25-2.89,5.51-5.58,10.92-7.14,16.48-1.67,5.53-1.89,11.31-.29,17.02l.61,2.14.82,2.1.41,1.06c.16.34.33.68.5,1.02l1.01,2.06c.7,1.37,1.52,2.68,2.28,4.05l2.63,3.9-.59.54c-4.24-4.67-7.96-9.94-10.23-15.91-2.33-5.94-2.62-12.61-1.29-18.82,1.29-6.24,3.81-12.1,6.37-17.84,2.58-5.74,5.25-11.43,7.47-17.29,2.25-5.84,4.01-11.87,5.03-18.02,1.03-6.15,1.31-12.42.85-18.64-.43-6.21-1.72-12.38-2.74-18.59l-3.32-18.57c-8.8-49.53-18.64-98.89-26.89-148.54l.79-.13Z"/>
    <path class="uuid-41b4280b-16cf-4b6a-b6e0-741edcbc4ebf" d="m664.06,930.41c31.46,34.7,77.3,52.42,122.05,38.61l174.73-53.92s-20.48-85.36-20.48-86.68-136.64-2.74-163.5,22.25c0,0-63.78-338.77-186.26-279.83-64.1,30.85-19.88,256.61,73.46,359.57Z"/>
    <path class="uuid-2652d750-2e18-4dcf-a3d8-7740609691e8" d="m783.21,862.6c24.22-22.54,137.71-23.59,159.76-22.62-1.59-6.78-2.61-11.27-2.61-11.56,0-1.27-126.94-2.63-160.15,19.65,2,9.2,3,14.53,3,14.53Z"/>
    <g>
      <path class="uuid-7af5b8a0-3ba7-46a2-9d74-e007d848782c" d="m896.86,894.37s54.1-18.91,70.86-14.82c16.76,4.08,37.4,9.47,52.46,21.7,4.26,3.46,3.21,12.54-3.71,17.68,4.24,4.97-1.99,17.06-6.79,17.44,3.34,6.1-4.85,19.03-8.61,17.4,2.62,6.19-6.55,13.4-10.75,11.06-15.07-2.34-20.69-5.66-20.69-5.66l-77.3-54.46,4.53-10.35Z"/>
      <path class="uuid-109edd4f-ed1a-4bbb-b9f2-7731ca167436" d="m979.2,891.69c3.03,2,6,4.08,8.96,6.18,2.97,2.09,5.88,4.24,8.8,6.39,2.9,2.17,5.81,4.34,8.67,6.58l4.28,3.35c1.41,1.15,2.83,2.27,4.22,3.44-1.52-.99-3.01-2.03-4.51-3.05l-4.45-3.13c-2.97-2.09-5.88-4.24-8.8-6.39-2.9-2.17-5.81-4.34-8.66-6.58-2.86-2.23-5.72-4.47-8.51-6.79Z"/>
      <path class="uuid-109edd4f-ed1a-4bbb-b9f2-7731ca167436" d="m970.33,914.43c3.2,1.57,6.35,3.24,9.49,4.93,3.15,1.67,6.25,3.42,9.36,5.16,3.1,1.76,6.19,3.53,9.25,5.36l4.58,2.75c1.51.95,3.04,1.87,4.53,2.84-1.61-.78-3.18-1.61-4.77-2.42l-4.72-2.51c-3.15-1.67-6.25-3.42-9.36-5.16-3.09-1.76-6.19-3.53-9.25-5.36-3.06-1.82-6.12-3.66-9.12-5.59Z"/>
      <path class="uuid-109edd4f-ed1a-4bbb-b9f2-7731ca167436" d="m965.41,936.38c2.93,1.16,5.81,2.41,8.68,3.68,2.88,1.26,5.72,2.59,8.56,3.92,2.83,1.35,5.67,2.71,8.46,4.13l4.2,2.14c1.38.75,2.78,1.46,4.15,2.23-1.47-.57-2.91-1.2-4.36-1.79l-4.32-1.89c-2.88-1.26-5.72-2.59-8.56-3.92-2.83-1.35-5.67-2.71-8.46-4.13-2.8-1.41-5.6-2.84-8.35-4.37Z"/>
    </g>
    <path class="uuid-2652d750-2e18-4dcf-a3d8-7740609691e8" d="m694.23,618.55c-6.48-8.32-13.1-16.47-20.34-23.97-3.66-3.71-7.4-7.32-11.41-10.59-3.98-3.3-8.15-6.36-12.58-8.95-4.39-2.67-9.05-4.83-13.89-6.45-4.83-1.66-9.87-2.63-14.97-3.02-10.24-.76-20.61,1.47-30.43,5.26,9.09-5.3,19.7-8.59,30.56-8.38,5.41.03,10.81.99,16,2.53,5.18,1.6,10.13,3.88,14.77,6.62,4.61,2.8,8.95,6,12.98,9.51,4,3.55,7.79,7.32,11.25,11.36,6.96,8.05,12.95,16.83,18.05,26.07Z"/>
    <path class="uuid-4cc5e5ca-f3f4-41f1-887b-84f2cf156a75" d="m949.98,828.98c-.41-.17-.9-.13-1.35-.18l-1.38-.05-2.76-.03c-1.84,0-3.68.02-5.52.05-3.68.04-7.35.12-11.03.22-7.35.21-14.7.46-22.03.82-7.34.32-14.68.72-22,1.22-7.33.49-14.65,1.02-21.95,1.69-14.6,1.38-29.19,2.97-43.54,5.66-7.17,1.32-14.3,2.86-21.19,4.98-3.44,1.06-6.82,2.27-10.03,3.73-3.19,1.46-6.25,3.21-8.64,5.39l-3.31,3.01-.84-4.38c-2.42-12.61-5.27-25.23-8.2-37.78-2.9-12.57-6.11-25.07-9.37-37.56-3.3-12.48-6.77-24.91-10.48-37.28-3.59-12.41-7.67-24.67-11.65-36.98,2.43,5.99,5.01,11.94,7.25,18.01l3.43,9.08,3.26,9.15c1.1,3.05,2.13,6.11,3.14,9.19l3.05,9.22c1.97,6.17,3.89,12.36,5.7,18.57,3.71,12.41,7.07,24.93,10.22,37.49,3.14,12.58,5.98,25.2,8.53,37.96l-4.15-1.36c3.04-2.81,6.52-4.66,9.99-6.26,3.49-1.57,7.06-2.82,10.65-3.91,7.19-2.16,14.47-3.71,21.78-4.98,7.31-1.24,14.65-2.2,22-3,7.35-.81,14.7-1.42,22.07-1.88,7.36-.47,14.73-.84,22.1-1.08,7.37-.22,14.74-.36,22.1-.4,7.37,0,14.73.05,22.1.26,3.68.11,7.36.24,11.04.41,1.84.1,3.68.21,5.51.34l2.75.22,1.37.14c.45.07.94.07,1.34.27Z"/>
    <path class="uuid-0a9ad94d-2fda-4dac-907e-d32f57dd9aa5" d="m817.52,918.05c-45.58,36.14-111.56,32.13-151.47-10.19-.67-.71-1.33-1.42-1.98-2.15-59.9-66.07-99.57-182.72-103.36-265.97-4.24,83.24,37.23,217.83,103.36,290.78,31.46,34.7,77.3,52.42,122.05,38.61l174.73-53.92s-2.09-17.17-17.07-58.19c-27.83-11.44-88.82,31.34-126.25,61.02Z"/>
    <g>
      <path class="uuid-7af5b8a0-3ba7-46a2-9d74-e007d848782c" d="m799.71,849.44s-49.73-30.3-90.93-32.88c-41.2-2.58-1.01,23.62,12.22,24.54,9.69.67,14.95,2.62,10.8,14.27-1.77,4.96-13.21,4.15-36.68,5.39-4.55.24-9.12-.86-12.95-3.33-9.37-6.06-21.7-9.34-32.84-13.3-3.09-1.1-6.53.27-8.07,3.17-4.46,8.4-3.05,15.12,6.48,21.71-4.73,16.07.75,21.62,11.98,27.98,2.67,6.89.46,16.81,13.43,19.64,6.35,15.67,10.5,18.8,28.99,19.94,42.12,2.61,93.16-19.54,93.16-19.54l4.4-67.58Z"/>
      <path class="uuid-109edd4f-ed1a-4bbb-b9f2-7731ca167436" d="m687.97,869.72c.2.27.2.64.28.96l.16.99.25,1.99.44,3.98c.29,2.65.6,5.3.97,7.93.38,2.62.82,5.24,1.49,7.75.34,1.24.76,2.48,1.34,3.52.14.26.3.5.46.72.08.11.17.2.25.29l.31.28c.57.49,1.09,1.08,1.5,1.74.82,1.34,1.11,2.91,1.12,4.33.02,1.43-.16,2.78-.23,4.07-.06,1.27-.06,2.51.41,3.46.18.4.69,1.09.99,1.67.34.6.65,1.21.94,1.82,2.29,4.9,4.13,9.92,5.72,15.04-2.42-4.78-4.67-9.64-7.18-14.29-.33-.57-.64-1.15-.98-1.69-.33-.59-.67-.95-1.11-1.73-.76-1.46-.77-3.01-.72-4.38.15-2.73.53-5.34-.64-7.28-.28-.48-.65-.91-1.09-1.29-.08-.08-.29-.26-.42-.4-.14-.15-.28-.31-.4-.47-.24-.32-.44-.64-.62-.97-.69-1.32-1.06-2.66-1.39-3.99-.64-2.67-.96-5.36-1.2-8.03-.24-2.68-.34-5.36-.41-8.04l-.05-4.01-.02-2-.02-1c-.03-.32,0-.69-.15-.97Z"/>
      <path class="uuid-109edd4f-ed1a-4bbb-b9f2-7731ca167436" d="m648.98,869.6c3.51,1.52,6.97,3.15,10.42,4.78,3.45,1.63,6.86,3.35,10.3,5.02,3.4,1.74,6.82,3.45,10.2,5.23l5.06,2.69c1.67.93,3.36,1.83,5.01,2.78-1.76-.75-3.49-1.56-5.23-2.34l-5.19-2.44c-3.45-1.64-6.87-3.35-10.3-5.02-3.4-1.75-6.82-3.45-10.19-5.23-3.38-1.78-6.75-3.58-10.08-5.47Z"/>
      <path class="uuid-109edd4f-ed1a-4bbb-b9f2-7731ca167436" d="m660.32,897.15c3.01.62,5.95,1.5,8.9,2.34,2.95.85,5.87,1.77,8.79,2.71,2.91.96,5.82,1.91,8.71,2.95l4.33,1.56c1.43.55,2.87,1.08,4.29,1.66-1.49-.37-2.96-.8-4.44-1.2l-4.41-1.29c-2.94-.86-5.86-1.8-8.77-2.73-2.91-.96-5.82-1.91-8.71-2.93l-4.34-1.52c-1.44-.53-2.88-1.05-4.33-1.55Z"/>
      <path class="uuid-109edd4f-ed1a-4bbb-b9f2-7731ca167436" d="m673.17,916.62c2.46.22,4.87.78,7.27,1.29,2.4.52,4.79,1.12,7.17,1.73,2.37.63,4.75,1.27,7.1,1.99l3.52,1.08c1.16.4,2.34.76,3.49,1.19-1.21-.21-2.41-.48-3.62-.72l-3.59-.81c-2.4-.54-4.77-1.16-7.15-1.77-2.37-.64-4.74-1.26-7.1-1.95l-3.54-1.02c-1.18-.36-2.35-.72-3.54-1.01Z"/>
    </g>
    <path class="uuid-4cc5e5ca-f3f4-41f1-887b-84f2cf156a75" d="m560.85,639.75c-.6,26.37,2.55,52.65,7.8,78.41,5.15,25.79,12.38,51.15,21.33,75.84l1.68,4.63,1.77,4.6,1.76,4.6,1.85,4.56c1.23,3.04,2.43,6.1,3.74,9.11,1.29,3.02,2.53,6.06,3.91,9.04,5.32,12,11.11,23.78,17.43,35.28,6.31,11.49,13.15,22.69,20.62,33.44,7.46,10.74,15.56,21.07,24.41,30.61,8.79,9.5,18.84,17.85,29.88,24.58,11.01,6.78,23.15,11.67,35.74,14.45l2.36.52c.79.18,1.57.36,2.37.45l4.78.69c.8.11,1.59.24,2.39.34l2.41.16,4.82.32c1.61.09,3.22-.01,4.83,0l2.42-.03c.8-.02,1.61.01,2.41-.09l4.81-.45,2.41-.22c.8-.11,1.59-.27,2.38-.4l4.76-.84,1.19-.21c.39-.09.78-.2,1.17-.3l2.34-.61,4.68-1.22,4.73-1.42,18.95-5.67,75.82-22.65,37.97-11.12,18.99-5.56,19.01-5.47.09.29-151.19,46.74-18.9,5.84-4.73,1.46-4.79,1.27-2.4.64c-.4.1-.8.22-1.2.31l-1.22.22-4.88.88c-.81.14-1.62.31-2.44.42l-2.47.24-4.93.48c-.82.11-1.65.08-2.47.11l-2.48.04c-1.65,0-3.31.11-4.96.02l-4.95-.31-2.47-.15c-.82-.09-1.64-.22-2.46-.33l-4.91-.69c-.82-.09-1.63-.28-2.43-.45l-2.42-.53c-12.91-2.81-25.36-7.77-36.64-14.67-11.31-6.84-21.6-15.33-30.6-24.99-8.96-9.7-17.08-20.15-24.58-31.01-7.49-10.87-14.34-22.17-20.65-33.76-12.62-23.18-23.16-47.47-31.94-72.34-8.76-24.89-15.78-50.4-20.69-76.33-2.44-12.96-4.34-26.04-5.52-39.18-1.17-13.14-1.64-26.36-1.02-39.54l.3.02Z"/>
    <path class="uuid-41b4280b-16cf-4b6a-b6e0-741edcbc4ebf" d="m981.89,826.22l-180.22,22.41s-28.17,36.1-14.15,68.39c202.62,30.94,188.43,33.34,239.22,26.22,24.36-3.41,41.28-52.08,38.35-61.82-7.77-25.81-19.26-59.97-83.2-55.2Z"/>
    <path class="uuid-3ebc9b08-8236-4d8d-8aca-5cfbad041b76" d="m1032.37,936.71c-47.62,6.67-38.12,4.98-203.7-20.75-27.4-4.26-42.9-33.93-30.55-58.76,1.69-3.4,3.39-6.36,4.86-8.73l-1.3.16s-28.17,36.1-14.15,68.39c202.62,30.94,188.43,33.34,239.22,26.22,8.09-1.13,15.36-7.26,21.36-15.3-4.73,4.68-10.03,7.97-15.73,8.76Z"/>
    <path class="uuid-4cc5e5ca-f3f4-41f1-887b-84f2cf156a75" d="m787.53,917.02c10,1.2,19.97,2.59,29.96,3.88,9.98,1.36,19.95,2.78,29.91,4.23,9.97,1.41,19.92,2.98,29.87,4.47l29.84,4.67,29.81,4.78,14.91,2.35,7.46,1.09c2.49.36,4.97.76,7.46,1.05,9.95,1.34,19.94,2.39,29.95,2.21,10.02-.13,20.03-1.47,30.04-2.5l-7.45,1.26c-2.49.41-4.98.75-7.47,1.13-2.49.39-5,.63-7.51.95-2.51.29-5.04.42-7.56.64-10.12.53-20.27-.21-30.28-1.36-20.06-2.25-39.94-5.53-59.83-8.63-19.88-3.2-39.75-6.44-59.6-9.8-19.86-3.33-39.7-6.77-59.51-10.41Z"/>
    <path class="uuid-4cc5e5ca-f3f4-41f1-887b-84f2cf156a75" d="m801.65,848.48c9.05-1.94,18.16-3.53,27.25-5.24,9.12-1.53,18.25-2.99,27.39-4.41,4.57-.7,9.14-1.41,13.72-2l13.75-1.84c9.17-1.16,18.36-2.21,27.54-3.25l27.56-2.84c4.59-.45,9.18-.91,13.74-1.43l3.43-.39c1.18-.12,2.35-.27,3.52-.35,2.36-.16,4.71-.28,7.07-.28,9.43-.06,18.85,1.17,27.86,3.79,2.25.67,4.46,1.45,6.64,2.28,2.19.85,4.32,1.77,6.43,2.68l6.38,2.7,3.18,1.37,1.6.66.8.32.4.15c.11.05.32.09.33.11l.09.28c-.28.01-.35-.05-.51-.08l-.42-.13-.83-.27-1.64-.57-3.26-1.18-6.49-2.42c-2.16-.82-4.32-1.64-6.5-2.39-2.19-.72-4.39-1.4-6.63-1.97-8.92-2.32-18.18-3.3-27.39-3-2.3.06-4.6.23-6.9.45-2.29.24-4.58.54-6.87.84-4.58.59-9.17,1.11-13.76,1.63l-27.55,3.02c-18.37,1.97-36.72,4.1-55.04,6.43-18.32,2.33-36.62,4.89-54.89,7.63l-.05-.3Z"/>
    <path class="uuid-4cc5e5ca-f3f4-41f1-887b-84f2cf156a75" d="m830.93,924.86c-12.05-14.58-14.63-33.17-7.47-53.77,5.36-15.42,14.13-26.36,14.5-26.82l2.33,1.89c-.35.43-34.53,43.54-7.05,76.79l-2.31,1.91Z"/>
  </g>
  <g>
    <g>
      <path class="uuid-07b142c5-5d0d-4138-a011-5e1c119816ff" d="m821.69,1349.01s80.4,17.18,76.58,41.04c-3.82,23.86-102.12-.59-102.12-.59,0,0,5.26-32.81,25.53-40.45Z"/>
      <path class="uuid-cb52c87c-6c38-4e76-82e2-c65833833f26" d="m619.96,1254.33l203.25,86.75c8.59,17.98,1.6,56.12-24.7,69.1l-205.5-67.28,26.95-88.57Z"/>
      <path class="uuid-1a982c74-84ce-4576-aed5-c1e349e2c0fd" d="m606.72,1245.3l28.61,15.58s11.41,74.38,66.32,85.83c54.91,11.45-105.9,10.02-106.37,12.41-.48,2.39-21.47-100.24,11.45-113.82Z"/>
      <g>
        <path class="uuid-85b00d1a-8034-4895-9e40-572982880fc1" d="m1156.34,1406.28h-449.21c-3.03,0-5.49-2.46-5.49-5.49v-6.01c0-3.68,2.99-6.67,6.67-6.67h448.03c3.68,0,6.67,2.99,6.67,6.67v4.83c0,3.68-2.99,6.67-6.67,6.67Z"/>
        <g>
          <path class="uuid-07b142c5-5d0d-4138-a011-5e1c119816ff" d="m677.24,1345.02s-10.42,28.94-8.93,47.33c.62,7.7,7.01,13.7,14.72,14.1,43.76,2.25,52.11-18.34,72.35-18.34,15.41,0,34.61,2.59,44.21-.86,4.59-1.65,5.19-7.91,1.01-10.44-17.24-10.44-71.28-42.4-123.37-31.79Z"/>
          <g>
            <path class="uuid-9e1efaa2-f911-4af7-9457-7513878b2802" d="m591.69,590.81s-143.77-59.89-204.7,77.81c-60.93,137.71,36.84,218.03-56.38,252.28-93.22,34.25-73.52,157.52-30.27,191.01,43.25,33.48,141.97-51.56,207.91-21.56,65.94,30.01,127.4,11.55,164.25-34.88,36.85-46.43-23.12-129.47-35.99-189.02,71.87-172.09,14.07-216.75-44.82-275.64Z"/>
            <path class="uuid-cb52c87c-6c38-4e76-82e2-c65833833f26" d="m527.24,896.44s-75.98-1.26-131.14,18.88c-29.22,10.67-51.33,34.97-60.04,64.83-50.61,173.58,57.44,306.22,32.04,353.38-26.72,49.63-7.63,83.98-7.63,83.98,0,0,240.5,40.08,295.85,0,0,0-31.02-112-33.4-163.19-1.61-34.47,9-53.13,21.51-71.36,28.31-41.24,35.22-93.4,19.07-140.75-9.33-27.34-13.3-52.86-14.81-72.95-2.15-28.51-21.61-52.68-49.03-60.77-21.73-6.41-47.86-12.06-72.4-12.06Z"/>
            <path class="uuid-1a982c74-84ce-4576-aed5-c1e349e2c0fd" d="m448.92,1015.83c3-2.51,37.07,231.63,78.1,259.31,41.04,27.68,61.93,39.13,61.93,39.13l-113.32-12.04s-70.47-249.86-26.72-286.4Z"/>
            <path class="uuid-1a982c74-84ce-4576-aed5-c1e349e2c0fd" d="m656.07,1417.59c-7.04-19.08-12.91-38.51-18.19-58.11-2.73-9.78-5.02-19.67-7.4-29.55-1.13-4.96-2.15-9.93-3.21-14.91-.97-5-2.03-9.97-2.93-14.98l-1.26-7.54-.62-3.77-.54-3.79-1.08-7.59c-.33-2.54-.59-5.09-.84-7.65-.25-2.55-.53-5.1-.63-7.69l-.42-7.74c-.08-5.2-.01-10.4.58-15.6.2-2.6.65-5.18,1.02-7.76.51-2.57.93-5.14,1.67-7.66,1.33-5.05,3.03-10.01,5.21-14.72,4.38-9.45,10.28-17.91,16.79-25.7l.41.28c-5.72,8.33-11.04,17-14.75,26.4-1.89,4.68-3.32,9.53-4.38,14.46-.59,2.45-.92,4.96-1.33,7.44-.26,2.51-.62,5.01-.73,7.53-.39,5.03-.3,10.09-.13,15.13l.57,7.55c.15,2.52.47,5.03.78,7.54.31,2.51.58,5.02.93,7.52l1.14,7.5.57,3.75.65,3.74,1.31,7.47c3.54,19.92,7.86,39.71,12.46,59.41,4.63,19.71,9.56,39.34,14.84,58.88l-.48.13Z"/>
            <path class="uuid-07b142c5-5d0d-4138-a011-5e1c119816ff" d="m470.34,861.2l-.82-93.91,95.09,74.21v23.7c0,19.85,13.22,37.27,32.33,42.61l5.62,1.57s20.83,61.48-72.51,58.4c-86.85-2.86-97.42-61.77-97.42-61.77l7.27-2.39c18.29-6.01,30.6-23.16,30.43-42.42Z"/>
            <path class="uuid-abee9f4c-81ef-40d2-962a-dea8744e84c1" d="m471.64,771.42l28.47,12.88,64.49,57.2v26.66c-83.98-7.13-88.87-78.41-93.72-86.99l.75-9.75Z"/>
            <path class="uuid-07b142c5-5d0d-4138-a011-5e1c119816ff" d="m442.1,718.68c5.65,62.84,36.35,114.79,103.04,127.1,14.27,2.63,29.06.71,42.15-5.55,38.32-18.33,65.27-51.5,47.75-133.77-1.94-89.17-53.6-92.29-90.97-88.93-38.53,3.46-108.22,31.72-101.98,101.15Z"/>
            <path class="uuid-ba9dc047-4c9e-43e0-88e7-ed370a7c223c" d="m539.12,839.29c14.27,2.63,29.06.71,42.15-5.55,38.32-18.33,65.27-51.5,47.75-133.77-.7-32.31-7.94-53.32-18.66-66.82,13.96,12.9,23.84,35.27,24.67,73.32,17.52,82.27-9.43,115.44-47.75,133.77-13.09,6.26-27.89,8.19-42.15,5.55-30.22-5.58-53.03-19.32-69.49-38.51,15.86,15.79,36.78,27.08,63.48,32.01Z"/>
            <path class="uuid-b0f1d1e3-3f12-44ec-aeb2-619be45800c9" d="m577.24,754.36c.89.25,1.75.54,2.59.87.85.3,1.66.66,2.46,1.02,1.64.68,3.16,1.5,4.68,2.32,1.5.84,2.98,1.72,4.41,2.66.72.46,1.43.93,2.12,1.43.7.48,1.4.97,2.07,1.49l.35.27.44.58c.62.81,1,1.93,1.07,2.86.08.95-.06,1.69-.23,2.28-.36,1.18-.81,1.89-1.22,2.51-.83,1.23-1.7,2.01-2.53,2.77-1.72,1.43-3.46,2.52-5.33,3.37-1.86.85-3.81,1.48-5.86,1.82-1.02.19-2.1.22-3.15.24-1.07-.05-2.19-.16-3.22-.61l-.04-.5c1.78-.25,3.48-1.05,5.13-1.83,1.65-.81,3.25-1.73,4.78-2.75,1.53-1.02,3.01-2.12,4.34-3.36.66-.62,1.28-1.29,1.79-1.99.5-.68.88-1.55.52-2.01l.08.09-7.8-6.53c-1.3-1.09-2.61-2.17-3.89-3.28l-3.86-3.32.32-.39Z"/>
            <g>
              <path class="uuid-17c13cdb-823f-43b7-b149-8846d78552ff" d="m543.19,719.88c.71,7.32-2.46,13.64-7.1,14.1-4.64.46-8.97-5.1-9.69-12.42-.71-7.32,2.46-13.64,7.1-14.1,4.64-.46,8.97,5.1,9.69,12.42Z"/>
              <path class="uuid-9e366396-5831-4e8a-96e7-88eccce3239f" d="m536.34,715.31c.21,2.11-.54,3.92-1.68,4.03-1.13.11-2.22-1.51-2.42-3.62-.21-2.11.54-3.92,1.68-4.03,1.13-.11,2.22,1.51,2.42,3.62Z"/>
            </g>
            <g>
              <path class="uuid-17c13cdb-823f-43b7-b149-8846d78552ff" d="m613.29,713.58c.71,7.32-2.46,13.64-7.1,14.1-4.64.46-8.97-5.1-9.69-12.42-.71-7.32,2.46-13.64,7.1-14.1,4.64-.46,8.97,5.1,9.69,12.42Z"/>
              <path class="uuid-9e366396-5831-4e8a-96e7-88eccce3239f" d="m606.44,709.01c.21,2.11-.54,3.92-1.68,4.03-1.13.11-2.22-1.51-2.42-3.62-.21-2.11.54-3.92,1.68-4.03,1.13-.11,2.22,1.51,2.42,3.62Z"/>
            </g>
            <ellipse class="uuid-07b142c5-5d0d-4138-a011-5e1c119816ff" cx="452.91" cy="750.81" rx="25.36" ry="31.72" transform="translate(-223.54 192.91) rotate(-19.39)"/>
            <path class="uuid-0906a16f-10df-45dc-9b6d-f60ac7214f68" d="m548.54,691.13c-3.28.11-6.43.44-9.5,1.07-3.06.65-6.03,1.57-8.88,2.79-2.85,1.21-5.57,2.71-8.17,4.47-2.58,1.77-5,3.81-7.36,6.1,1.34-3.01,3.43-5.69,5.91-7.93,2.47-2.26,5.36-4.08,8.45-5.39,3.09-1.31,6.4-2.14,9.75-2.34,3.33-.23,6.71.12,9.81,1.24Z"/>
            <path class="uuid-0906a16f-10df-45dc-9b6d-f60ac7214f68" d="m620.86,692.33c-2.66-1.06-5.24-1.95-7.88-2.55-2.63-.61-5.28-.97-7.94-1.09-2.66-.11-5.34.02-8.01.41-2.68.37-5.33,1.03-8.07,1.86,2.13-1.93,4.77-3.28,7.54-4.16,2.78-.87,5.74-1.23,8.66-1.1,2.93.13,5.83.75,8.53,1.85,2.69,1.11,5.2,2.68,7.16,4.78Z"/>
            <path class="uuid-e1c5cbbc-3f70-42e1-accf-5e94f4d8a961" d="m574.76,794.18c-2.08,1.37-4.47,2.14-6.94,2.49-2.46.33-5.01.21-7.46-.37-2.45-.57-4.79-1.59-6.85-3.02-2.05-1.44-3.85-3.34-4.81-5.65,2.19,1.17,4.21,2.11,6.29,2.88,2.08.77,4.17,1.41,6.29,1.9,2.12.51,4.27.86,6.49,1.13,2.23.27,4.51.4,6.98.65Z"/>
            <path class="uuid-0906a16f-10df-45dc-9b6d-f60ac7214f68" d="m605.79,702.08c.59.04,1.33,0,1.99-.08.68-.08,1.36-.2,2.01-.41,1.3-.39,2.57-1.11,3.19-2.49-.06.74-.35,1.49-.81,2.14-.45.66-1.06,1.19-1.69,1.68-.64.48-1.33.88-2.04,1.23-.73.35-1.42.65-2.27.9l-.38-2.98Z"/>
            <path class="uuid-0906a16f-10df-45dc-9b6d-f60ac7214f68" d="m536.29,708.32c.59.04,1.33,0,1.99-.08.68-.08,1.36-.2,2.01-.41,1.3-.39,2.57-1.11,3.19-2.49-.06.74-.35,1.49-.81,2.14-.45.66-1.06,1.19-1.69,1.68-.64.48-1.33.88-2.04,1.23-.73.35-1.42.65-2.27.9l-.38-2.98Z"/>
            <path class="uuid-9e1efaa2-f911-4af7-9457-7513878b2802" d="m560.09,621.56c1.6-11.01-6.74-21.7-17.09-25.79-10.35-4.09-22.06-2.83-32.81.05-43.2,11.58-77.88,50.22-84.64,94.45-.93,6.1-.58,12.3.67,18.34,1.3,6.26,27.33,58.02,32.81,59.46,7.49,1.97,13.74-50.59,20.09-55.02,37.66-26.32,78.41-27.41,81.77-92.29,0,0,70.07,24.51,75.63,80.06,0,0,52.59-116.83-58.38-115-14.13.23-26.05,8.97-22.01,22.51l3.95,13.23Z"/>
          </g>
          <path class="uuid-cb52c87c-6c38-4e76-82e2-c65833833f26" d="m335.86,1090.3s10.43,252.6,89.17,279.32c78.74,26.72,183.72,38.61,247.02,36.15,11.26-17.14,11.71-40.06,8.92-64.69l-183.76-53.53s-29.71-316.18-83.15-323.19c-53.44-7.01-87.23,5.8-78.2,125.95Z"/>
          <path class="uuid-cb52c87c-6c38-4e76-82e2-c65833833f26" d="m426.63,1351.64c-40.29-12.8-63.84-77.4-77.45-141.25,12.07,69.2,34.58,145.23,75.84,159.23,78.74,26.72,183.72,38.61,247.02,36.15,3.53-5.38,6-11.32,7.64-17.71-68.32.92-173.28-11.08-253.05-36.42Z"/>
          <path class="uuid-85b00d1a-8034-4895-9e40-572982880fc1" d="m1140.55,1388.11h-298.41l84.9-243.81c3.07-8.82,14.22-15.97,24.91-15.97h275.92c10.68,0,16.85,7.15,13.78,15.97l-79.58,228.52c-3.19,9.16-11.83,15.3-21.52,15.3Z"/>
          <path class="uuid-6f559109-868a-4edd-a63b-595e67690fec" d="m854.74,1382.88l82.48-236.86c2.35-6.75,11.49-12.46,19.96-12.46h275.92c3.86,0,6.92,1.19,8.4,3.26,1.36,1.91.99,4.18.44,5.76l-79.58,228.52c-2.45,7.05-9.12,11.78-16.58,11.78h-291.04Z"/>
          <path class="uuid-1a982c74-84ce-4576-aed5-c1e349e2c0fd" d="m672.06,1406.02c-11.65.79-23.36,1.27-35.05,1.12h-4.39s-4.39-.09-4.39-.09l-8.77-.19c-5.85-.18-11.69-.46-17.54-.71-23.36-1.47-46.66-3.95-69.86-7.31-11.6-1.66-23.17-3.58-34.66-5.91l-8.63-1.73c-2.88-.56-5.73-1.26-8.6-1.88l-8.59-1.92c-2.86-.67-5.7-1.41-8.55-2.11l-8.54-2.16-8.48-2.42c-2.82-.82-5.66-1.57-8.47-2.46l-8.41-2.68c-2.82-.92-5.53-1.67-8.61-2.95-.76-.27-1.48-.62-2.19-.98l-2.15-1.06c-1.41-.74-2.74-1.6-4.11-2.4-5.31-3.44-9.95-7.66-14.06-12.22-4.1-4.58-7.65-9.53-10.86-14.63-3.21-5.1-6.08-10.37-8.72-15.72-5.2-10.74-9.54-21.79-13.22-33-3.66-11.23-6.8-22.58-9.55-34.01-1.38-5.71-2.69-11.44-3.86-17.19-1.18-5.75-2.23-11.52-3.27-17.29-4.04-23.1-7.09-46.32-9.37-69.6-1.04-11.65-1.89-23.31-2.57-34.98-.34-5.83-.64-11.67-.88-17.5-.19-5.84-.34-11.68-.4-17.52l.5-.02c1.18,23.3,3.27,46.55,5.96,69.72,2.72,23.17,6.14,46.26,10.57,69.17,4.48,22.88,9.89,45.62,17.32,67.72,3.74,11.03,8,21.9,13.13,32.36,5.2,10.39,11.18,20.5,18.93,29.16,3.87,4.31,8.18,8.26,13.03,11.42,1.25.73,2.46,1.52,3.73,2.2l1.94.96c.64.33,1.29.65,1.97.89,2.65,1.12,5.47,1.94,8.23,2.84l8.32,2.68c2.78.89,5.59,1.64,8.39,2.47l8.4,2.43,8.46,2.2c22.58,5.85,45.45,10.52,68.47,14.28,23.02,3.75,46.19,6.61,69.44,8.51,23.25,1.85,46.6,2.76,69.91,2.01l.02.5Z"/>
          <path class="uuid-4ee55bb7-dccf-4761-9593-785f309e5daf" d="m731.38,1377.73c6.12-.42,12.24-.69,18.36-.92,6.12-.23,12.25-.34,18.38-.45,6.13-.03,12.26-.05,18.4.19,3.07.16,6.13.23,9.2.83.39.07.76.16,1.12.31.36.13.73.25,1.09.4.72.28,1.43.58,2.11.94.68.36,1.36.75,1.96,1.23.58.49,1.19,1.05,1.4,1.8-.27-.73-.89-1.23-1.49-1.67-.62-.44-1.3-.8-1.99-1.11-.69-.32-1.4-.58-2.13-.83-.36-.13-.72-.23-1.09-.34-.36-.13-.73-.2-1.1-.24-2.96-.48-6.06-.48-9.11-.54-6.12-.08-12.24-.06-18.36.04l-18.37.22c-6.13.07-12.25.15-18.38.15Z"/>
          <path class="uuid-4ee55bb7-dccf-4761-9593-785f309e5daf" d="m735.88,1363.4c.48.05,1.01.08,1.56.1l1.62.07,3.25.14,6.51.3c4.34.23,8.67.5,13,.86,4.33.37,8.65.82,12.95,1.44,4.29.63,8.6,1.4,12.69,2.87-4.12-1.39-8.42-2.08-12.72-2.62-4.3-.53-8.62-.9-12.95-1.19-4.33-.27-8.66-.47-12.99-.61l-6.5-.18-3.25-.07-1.63-.04c-.54-.01-1.09-.03-1.69-.09l.17-.98Z"/>
          <polygon class="uuid-4ee55bb7-dccf-4761-9593-785f309e5daf" points="735.82 1352.8 754.23 1354.39 735.76 1353.8 735.82 1352.8"/>
          <path class="uuid-1a982c74-84ce-4576-aed5-c1e349e2c0fd" d="m680.9,1341.32c-15.5-3.81-30.93-7.89-46.37-11.9-7.72-2.02-15.45-3.99-23.15-6.06l-23.11-6.21c-15.41-4.12-30.77-8.43-46.16-12.64-15.38-4.24-30.71-8.62-46.07-12.93l-2.69-.75-.32-2.89c-1.53-14.05-3.09-28.17-4.81-42.24-1.69-14.08-3.61-28.13-5.44-42.2-1.88-14.06-3.88-28.09-6.04-42.1-2.16-14.01-4.32-28.02-6.78-41.97-1.21-6.98-2.5-13.94-3.8-20.91-1.29-6.96-2.64-13.91-4.07-20.85-1.43-6.93-2.94-13.85-4.55-20.73-1.57-6.9-3.24-13.77-5.05-20.6-1.8-6.83-3.8-13.61-5.89-20.35-2.12-6.73-4.44-13.4-7.13-19.9-2.7-6.49-5.76-12.86-9.66-18.68-1.98-2.88-4.13-5.65-6.71-7.99-2.55-2.34-5.62-4.22-9.08-4.82l.07-.5c3.61.48,6.88,2.31,9.6,4.61,2.75,2.3,5.07,5.05,7.17,7.93,4.16,5.81,7.44,12.17,10.37,18.64,5.81,13,10.23,26.55,14.2,40.2,7.83,27.34,13.68,55.19,18.87,83.13,5.15,27.95,9.51,56.05,13.39,84.2,3.84,28.16,7.18,56.39,9.96,84.68l-.31-.37,183.71,53.71-.14.48Z"/>
        </g>
      </g>
      <path class="uuid-1a982c74-84ce-4576-aed5-c1e349e2c0fd" d="m602.8,909.3c.94,2.32,1.63,4.72,2.18,7.17.51,2.46.82,4.97.98,7.5.17,2.54,0,5.1-.26,7.66-.38,2.54-.84,5.12-1.69,7.59-1.64,4.97-4.35,9.67-7.91,13.63-3.54,3.99-7.91,7.13-12.5,9.63-4.6,2.48-9.46,4.48-14.45,5.76-2.47.78-4.99,1.21-7.49,1.78-2.51.51-5.03.82-7.55,1.24-2.52.3-5.05.48-7.58.71l-7.57.3c-2.52.03-5.03-.02-7.55-.02-1.26.01-2.52-.05-3.78-.12l-3.78-.18c-10.06-.74-20.13-2.23-29.93-4.97-1.22-.35-2.43-.77-3.64-1.15-1.21-.41-2.44-.73-3.62-1.21-2.38-.92-4.79-1.75-7.11-2.83-4.71-1.96-9.2-4.48-13.51-7.23-8.62-5.51-16.2-12.65-22.12-20.9-2.91-4.16-5.44-8.56-7.43-13.19-.96-2.33-1.84-4.68-2.56-7.07-.68-2.41-1.24-4.84-1.55-7.33l.49-.09c1.04,4.76,2.94,9.35,5.13,13.72,2.26,4.35,4.93,8.49,7.98,12.32,6.11,7.67,13.67,14.15,22.08,19.18,4.22,2.49,8.58,4.75,13.14,6.56,2.24.99,4.58,1.74,6.89,2.57,1.15.44,2.34.72,3.51,1.09,1.18.34,2.35.72,3.53,1.03,9.49,2.5,19.25,3.91,29.04,4.53,9.79.62,19.65.68,29.41-.38,2.43-.35,4.87-.59,7.28-1.03,2.4-.5,4.83-.85,7.18-1.55,4.77-1.13,9.38-2.88,13.76-5.03,4.37-2.17,8.46-4.97,11.86-8.47,3.43-3.47,6.09-7.68,7.86-12.22.93-2.26,1.51-4.64,2.01-7.03.4-2.41.68-4.84.71-7.29.06-4.88-.53-9.82-1.92-14.49l.47-.16Z"/>
      <path class="uuid-1a982c74-84ce-4576-aed5-c1e349e2c0fd" d="m486.47,979.29c6.72,1.33,13.43,2.64,20.2,3.56,6.76.99,13.55,1.72,20.35,2.16,6.81.34,13.62.52,20.42.21,1.7-.09,3.39-.25,5.08-.37l2.54-.2,2.52-.33c1.68-.24,3.37-.4,5.04-.71l4.99-.99c6.62-1.3,12.97-3.81,18.75-7.27,2.93-1.68,5.61-3.73,8.22-5.87,2.51-2.25,4.96-4.58,7.11-7.19,4.35-5.16,7.9-11.05,10.21-17.43l.87-2.39c.3-.8.48-1.63.73-2.44.22-.82.47-1.63.68-2.46.2-.83.37-1.66.53-2.5.62-3.34.96-6.76.76-10.18.83,6.84-.57,13.76-2.63,20.3-2.16,6.56-5.62,12.67-9.94,18.08-1.04,1.39-2.25,2.63-3.41,3.92-.56.66-1.23,1.22-1.86,1.82-.64.59-1.26,1.2-1.91,1.77-2.66,2.22-5.41,4.36-8.41,6.12-5.92,3.61-12.47,6.27-19.27,7.66l-5.09.96c-1.7.3-3.42.45-5.13.68l-2.57.32-2.58.18c-1.72.11-3.44.25-5.15.33-6.88.22-13.76.08-20.61-.5-6.84-.62-13.65-1.52-20.4-2.72-6.74-1.25-13.43-2.76-20.04-4.52Z"/>
      <ellipse class="uuid-7fd7d875-b711-45cc-b31f-145e69cd0cfc" cx="1052.75" cy="1272.02" rx="29.61" ry="20.29" transform="translate(-568.5 959.18) rotate(-39.47)"/>
    </g>
    <g>
      <path class="uuid-7e4eedf9-c7a9-411c-93a3-43b19fbbc7eb" d="m1935.69,490.79c33.17-14.97,70.62-18.41,111.04-13.83l-80.23,50.33-30.81-36.49Z"/>
      <path class="uuid-9e1efaa2-f911-4af7-9457-7513878b2802" d="m1871.97,1076.57l-43.5,343.4,382.17,6.06s52.14-274.77-41.59-376.22l-297.05,8.45-.03,18.32Z"/>
      <path class="uuid-14514219-3fbb-4e7e-bb29-76507839b9ae" d="m1821.44,589.54l-63.84,216.48-130.77-75.74-41.52,50.54s178.81,208.2,240.52,197.88c89.51-14.98,71.27-271.32,71.27-271.32l-75.66-117.84Z"/>
      <path class="uuid-846d2c6c-563d-47cf-9284-6a47e4b3cea2" d="m1897.1,707.39l-75.66-117.84-4.73,16.05-1.21,31.77c-.81,21.29.14,42.61,2.78,63.76,7.74,61.97,38.9,212.97-31.08,224.68-42.47,7.1-138.63-90.4-200.14-147.09l-1.74,2.12s178.81,208.2,240.52,197.88c89.51-14.98,71.27-271.32,71.27-271.32Z"/>
      <path class="uuid-fb0f7dfe-3417-46e1-95f9-155941edce21" d="m1821.29,981.56c-66.09,0-230.73-190.78-237.88-199.11l3.79-3.26c.45.52,45.25,52.57,96.99,102.67,67.98,65.82,116.8,98.46,141.23,94.38,86.26-14.43,69.37-266.13,69.18-268.67l4.99-.35c.04.64,4.5,65.06-2.07,130.47-3.87,38.54-10.76,69.92-20.48,93.27-12.38,29.75-29.47,46.65-50.79,50.22-1.58.26-3.23.39-4.95.39Z"/>
      <polygon class="uuid-d1834a99-715f-49f9-ae82-b650f7941e2c" points="1946.25 477.86 1946.25 521.93 2045.93 521.93 2048.33 387.33 1946.25 477.86"/>
      <path class="uuid-821614d7-c440-43f5-8834-4775ccbc8bb3" d="m2047.88,410.5l-34.69,7.99-66.95,59.38v27.68c87.18-7.4,96.59-85.42,101.62-94.32v-.72Z"/>
      <path class="uuid-d1834a99-715f-49f9-ae82-b650f7941e2c" d="m2061.26,334.69c0,72.37-32.06,145.84-112.08,145.84-48.9,0-118.65-43.33-96.46-145.13-.45-84.09,54.76-95.82,93.7-95.82s114.84,22.74,114.84,95.11Z"/>
      <path class="uuid-006c9542-e16f-4100-b4f9-bb26918bf401" d="m1957.81,473.13c-48.9,0-118.65-43.33-96.46-145.13-.19-35.27,9.41-57.8,23.5-72.08-18.64,13.44-32.36,37.4-32.14,79.48-22.19,101.81,47.56,145.13,96.46,145.13,30.01,0,53.28-10.33,70.64-27.06-16.21,12.32-36.71,19.67-62,19.67Z"/>
      <path class="uuid-b0f1d1e3-3f12-44ec-aeb2-619be45800c9" d="m1921.3,364.39c-1.34,5.81-3.4,11.19-5.73,16.42-1.11,2.65-2.39,5.19-3.68,7.74-.65,1.27-1.34,2.51-2,3.77l-1.05,1.86c-.08.14-.2.34-.24.43l-.13.28c-.1.18-.17.37-.24.56-.6,1.49-.6,3.25,0,4.81.29.79.75,1.5,1.32,2.15.29.32.63.6.99.88.42.32,1,.67,1.52.98,4.39,2.49,9.72,4.1,15.36,5.87v.5c-2.86.03-5.72-.1-8.56-.49-2.84-.43-5.65-1.12-8.32-2.21-1.32-.54-2.68-1.17-3.82-2.14-1.14-.95-2.08-2.14-2.73-3.48-1.32-2.67-1.47-5.88-.41-8.67.55-1.42,1.37-2.59,2.07-3.82l2.17-3.68,4.33-7.36,4.33-7.35,4.4-7.31.43.25Z"/>
      <g>
        <ellipse class="uuid-17c13cdb-823f-43b7-b149-8846d78552ff" cx="1965.6" cy="345.41" rx="13.83" ry="8.76" transform="translate(1608.19 2308.86) rotate(-89.65)"/>
        <path class="uuid-9e366396-5831-4e8a-96e7-88eccce3239f" d="m1963.5,339.96c-.02,2.2.93,4,2.11,4.01s2.15-1.76,2.17-3.97c.02-2.2-.93-4-2.11-4.01s-2.15,1.76-2.17,3.97Z"/>
      </g>
      <g>
        <ellipse class="uuid-17c13cdb-823f-43b7-b149-8846d78552ff" cx="1892.53" cy="345.41" rx="13.83" ry="8.76" transform="translate(1535.55 2235.79) rotate(-89.65)"/>
        <path class="uuid-9e366396-5831-4e8a-96e7-88eccce3239f" d="m1890.44,339.96c-.02,2.2.93,4,2.11,4.01,1.18.01,2.15-1.76,2.17-3.97.02-2.2-.93-4-2.11-4.01-1.18-.01-2.15,1.76-2.17,3.97Z"/>
      </g>
      <path class="uuid-c5643bea-9188-4011-8e4c-1c9a4ffe7faf" d="m1990.1,244.51s30.6,101.57,49.1,98.52c18.5-3.05,4.51,61.02,5.76,57.8,1.25-3.22,54-26.69,53.99-111.94.54-32.23-49.67-96.52-108.85-44.39Z"/>
      <ellipse class="uuid-d1834a99-715f-49f9-ae82-b650f7941e2c" cx="2053.06" cy="368.92" rx="32.93" ry="26.33" transform="translate(1190.08 2267.98) rotate(-75.75)"/>
      <path class="uuid-c5643bea-9188-4011-8e4c-1c9a4ffe7faf" d="m2001.19,247.15s-187.94,88.84-179.48,40.69c8.45-10.25,26.4-31.2,31.07-40.69,24.77-50.34,139.43-113.39,191.74-22.33,78.91,73.28-43.33,22.33-43.33,22.33Z"/>
      <path class="uuid-c5643bea-9188-4011-8e4c-1c9a4ffe7faf" d="m1949.3,318.5c12.32-3.01,25.78,1.51,33.97,11.13.88,1.03,2.63.9,3.54,0,1.02-1.02.88-2.5,0-3.54-9.34-10.96-24.89-15.82-38.84-12.41-3.12.76-1.8,5.59,1.33,4.82h0Z"/>
      <path class="uuid-c5643bea-9188-4011-8e4c-1c9a4ffe7faf" d="m1875.75,325.82c8.13-6.63,20.23-8.26,29.82-3.99,1.23.55,2.69.36,3.42-.9.62-1.07.34-2.87-.9-3.42-11.83-5.27-25.84-3.41-35.88,4.77-1.05.85-.89,2.65,0,3.54,1.04,1.04,2.49.86,3.54,0h0Z"/>
      <path class="uuid-c5643bea-9188-4011-8e4c-1c9a4ffe7faf" d="m1894.71,203.26s-53.62,59.21-73.7,62.91c-20.08,3.7,38.05,12.15,50.73-3.17,12.68-15.32,22.97-59.74,22.97-59.74Z"/>
      <path class="uuid-c5643bea-9188-4011-8e4c-1c9a4ffe7faf" d="m1904.89,198.15s-63.47,48.5-83.89,48.5c-20.42,0,35.21,18.85,50.46,6.08,15.25-12.77,33.43-54.58,33.43-54.58Z"/>
      <path class="uuid-dfd9c865-f59c-46f0-9416-ab663d9b306d" d="m1928.83,421.97c14.01,3.89,30.05-.92,39.61-11.87,0,0-4.92,29.74-22.19,29.78-7.93.02-17.41-17.91-17.41-17.91Z"/>
      <path class="uuid-14514219-3fbb-4e7e-bb29-76507839b9ae" d="m2046.73,476.96c12.69,15.66,22.17,33.03,24.33,54.3l-61.94,32.52-32.06-41.84,69.67-44.97Z"/>
      <path class="uuid-14514219-3fbb-4e7e-bb29-76507839b9ae" d="m1935.69,490.79l38.08,31.14-23.27,41.84-35.14-26.62c1.37-16.35,9.28-31.61,20.32-46.36Z"/>
      <path class="uuid-14514219-3fbb-4e7e-bb29-76507839b9ae" d="m2053.06,505.54s134.56,38.21,156.85,58.24c49.59,44.55,20.5,255.66-2.64,395.66-9.5,57.43,17.83,80.32-17.5,119.47l-311.41-1.41c-31.55,0-33.89-55.46-36.68-86.89l-23.41-377.73c-1.03-29.45,16.57-56.36,43.97-67.22l71.9-28.5,42.92,4.77,76-16.39Z"/>
      <path class="uuid-fb0f7dfe-3417-46e1-95f9-155941edce21" d="m2134.78,616.01c2.92-8.23,7.02-16,11.82-23.34,2.39-3.68,5.03-7.21,7.88-10.58,2.85-3.37,5.93-6.58,9.33-9.49,3.39-2.9,7.05-5.54,11.03-7.69,3.99-2.12,8.34-3.72,12.86-4.42,4.5-.74,9.15-.56,13.51.57,4.34,1.23,8.32,3.27,11.82,5.86-4.06-1.63-8.12-2.95-12.29-3.45-4.16-.49-8.31-.12-12.28.85-3.96,1.03-7.76,2.63-11.32,4.73-3.55,2.11-6.91,4.61-10.08,7.34-6.37,5.47-11.98,11.89-17.32,18.56-5.27,6.74-10.21,13.79-14.97,21.07Z"/>
      <path class="uuid-846d2c6c-563d-47cf-9284-6a47e4b3cea2" d="m2112.41,650.11c-.66,1.64-71.06,154.19-99.59,152.5-28.53-1.69-88.12-45.9-88.12-45.9,0,0,70.63,125.06,106.85,113.96,36.22-11.1,80.86-220.56,80.86-220.56Z"/>
      <path class="uuid-fb0f7dfe-3417-46e1-95f9-155941edce21" d="m1977.31,527.31l-.94,17.25-1.02,17.23-1.9,34.47c-1.41,22.97-2.73,45.94-3.84,68.91l-1.65,34.45c-.54,11.48-1.03,22.96-1.43,34.44-.88,22.96-1.57,45.92-1.46,68.82.02,11.44.2,22.89.94,34.21.38,5.65.89,11.29,1.76,16.75.45,2.71.96,5.42,1.72,7.86l1.22,4.24c.45,1.46.76,2.91,1.08,4.36.71,2.91,1.19,5.81,1.73,8.71.46,2.9.91,5.8,1.28,8.69.35,2.9.74,5.79,1,8.68.3,2.89.58,5.79.8,8.68.25,2.89.46,5.78.64,8.67.2,2.89.38,5.78.49,8.67.14,2.89.24,5.78.33,8.67.11,2.89.18,5.78.24,8.66.5,23.1.28,46.16-.37,69.2-.43,11.52-.97,23.03-1.58,34.53-.31,5.75-.63,11.5-1,17.25-.41,5.75-.84,11.49-1.31,17.23l-.5-.02c.98-22.99,1.55-46,1.77-69.01.2-23.01.04-46.03-.87-69.02-.47-11.49-1.13-22.98-2.17-34.43-.24-2.86-.55-5.72-.87-8.58-.29-2.86-.7-5.7-1.07-8.55-.39-2.85-.86-5.68-1.34-8.51-.55-2.82-1.04-5.65-1.75-8.42-.59-2.82-1.5-5.51-2.29-8.29-.87-2.78-1.41-5.63-1.9-8.47-.93-5.7-1.47-11.45-1.88-17.2-.8-11.5-1.02-23.02-1.08-34.53-.02-23.03.73-46.05,1.75-69.04,1.03-23,2.38-45.98,3.9-68.95,3.08-45.93,6.79-91.82,11.08-137.66l.5.05Z"/>
      <path class="uuid-fb0f7dfe-3417-46e1-95f9-155941edce21" d="m1841.44,990.63l-1.27-10.09-1.11-10.1-2.21-20.21-1.96-20.23c-.65-6.74-1.19-13.49-1.79-20.24l-.88-10.12-.79-10.13-1.56-20.25-2.74-40.53-2.28-40.55c-.61-13.53-1.36-27.05-1.81-40.58-.24-6.77-.55-13.53-.73-20.3l-.56-20.31-.31-20.33-.15-10.16v-10.17s.51-.03.51-.03l10.3,162.14,9.8,162.17-.5.03Z"/>
      <path class="uuid-fb0f7dfe-3417-46e1-95f9-155941edce21" d="m1832.89,780.44c15.86,21.59,32.03,42.93,48.71,63.87,16.6,20.99,33.61,41.66,51.17,61.83,17.63,20.09,35.71,39.83,55.11,58.12,9.71,9.12,19.69,17.97,30.29,25.95,5.3,3.98,10.74,7.75,16.4,11.1,5.65,3.34,11.53,6.3,17.65,8.29,3.04.98,6.17,1.75,9.25,2.03,1.52.16,3.05.15,4.58.03,1.53-.11,3.06-.37,4.57-.74,6.07-1.45,11.76-4.66,16.96-8.5,5.21-3.87,9.97-8.42,14.43-13.26,4.46-4.85,8.6-10.02,12.57-15.33,7.91-10.65,15.03-21.93,21.7-33.47,6.65-11.55,12.88-23.37,18.83-35.32,5.95-11.96,11.56-24.1,17.01-36.31,5.45-12.21,10.66-24.53,15.71-36.92,10.18-24.75,19.58-49.83,28.42-75.11-1.93,6.41-3.96,12.8-6.03,19.17-2.09,6.36-4.24,12.71-6.43,19.04-4.38,12.66-8.94,25.27-13.68,37.8-9.58,25.04-19.89,49.82-31.49,74.04-5.79,12.11-11.91,24.08-18.54,35.79-6.63,11.7-13.73,23.18-21.69,34.1-3.99,5.46-8.24,10.75-12.82,15.78-4.6,5.01-9.53,9.79-15.07,13.92-5.53,4.1-11.72,7.67-18.71,9.38-1.74.42-3.52.74-5.33.87-1.8.15-3.63.16-5.44-.02-3.6-.33-7.02-1.17-10.34-2.23-6.63-2.18-12.77-5.32-18.62-8.8-5.85-3.49-11.42-7.37-16.82-11.45-10.77-8.18-20.88-17.12-30.6-26.42-9.71-9.31-19.05-18.97-28.17-28.83-9.12-9.85-17.97-19.95-26.64-30.18-17.36-20.45-33.99-41.5-50.15-62.88-8.05-10.72-15.98-21.52-23.8-32.4-3.91-5.44-7.79-10.9-11.64-16.38-3.82-5.5-7.62-11.02-11.35-16.58Z"/>
      <g>
        <path class="uuid-14514219-3fbb-4e7e-bb29-76507839b9ae" d="m2121.78,645.82l-80.84,200.79c-7.93,0-147.84-115.9-147.84-115.9l-53.23,51.38s156.38,225.15,227.6,233.61c71.22,8.45,155.77-257.35,155.77-257.35l-101.45-112.54Z"/>
        <path class="uuid-846d2c6c-563d-47cf-9284-6a47e4b3cea2" d="m2219.82,754.57c-23.35,66.47-89.55,238.48-147.06,231.65-57.33-6.81-170.21-154.16-225.35-211.4l-7.54,7.28s156.38,225.15,227.6,233.61c71.22,8.45,155.77-257.35,155.77-257.35l-3.42-3.79Z"/>
      </g>
      <path class="uuid-fb0f7dfe-3417-46e1-95f9-155941edce21" d="m2071.17,531.47c-4.67,3.65-9.53,6.93-14.42,10.16-2.47,1.57-4.9,3.22-7.4,4.72l-7.48,4.56c-5.06,2.89-10.08,5.88-15.21,8.64-2.55,1.41-5.14,2.75-7.71,4.13-2.59,1.33-5.17,2.69-7.78,4l-3.39,1.69-2.18-2.92c-2.63-3.52-5.16-7.12-7.69-10.71-2.57-3.56-4.98-7.26-7.43-10.91-1.24-1.81-2.39-3.71-3.58-5.56-1.18-1.86-2.37-3.72-3.49-5.63-2.29-3.78-4.51-7.61-6.56-11.57l.4-.3c5.4,6.93,10.8,13.86,16.15,20.83l16.09,20.88-.6-.13c10.29-5.48,20.66-10.81,30.99-16.22l15.51-8.09,15.54-8.01.23.44Z"/>
      <path class="uuid-fb0f7dfe-3417-46e1-95f9-155941edce21" d="m1973.99,522.05c-1.08,3.97-2.52,7.73-3.94,11.51l-2.28,5.58-2.45,5.49c-.79,1.84-1.69,3.62-2.57,5.42-.88,1.79-1.74,3.6-2.65,5.38-1.84,3.54-3.72,7.06-5.69,10.53l-2.57,4.52-4.06-3.13c-1.45-1.12-2.91-2.24-4.34-3.4-1.44-1.14-2.87-2.29-4.27-3.49-2.81-2.37-5.65-4.72-8.35-7.23-2.76-2.44-5.41-5.03-8.05-7.63-2.59-2.66-5.19-5.32-7.57-8.25l.3-.4c5.91,4.37,11.81,8.75,17.67,13.18l17.62,13.25-.73.15,11.7-20.89,5.86-10.44,5.93-10.4.44.24Z"/>
      <path class="uuid-d1834a99-715f-49f9-ae82-b650f7941e2c" d="m1626.83,730.28s-55.96-102.29-85.53-106.81c-2.34-.36-3.16,3.03-3.31,7.52-.35,10.05,3.7,19.72,10.87,26.77,15.77,15.49,9.06,17.86,1.53,17.39-5.28-.33-41.53-20.41-83.87-37.04-3.57-1.4-12.49-3.91-16.32,2.41-4.97,8.2,13.59,21.27,70.86,44.7-6.85,0-88.05-38.73-93.14-18.76-3.24,12.69,82.07,34.83,86.39,42.12-9.18.54-82.7-37.47-89.23-26.59-8.5,14.17,72.83,42.46,79.51,46.57-2.43,3.78-57.93-22.09-63.72-12.47-7.02,11.66,56.2,32.36,60.62,34.59,55.81,28.1,83.83,33.18,83.83,33.18l41.52-53.56Z"/>
      <path class="uuid-d1834a99-715f-49f9-ae82-b650f7941e2c" d="m1882.64,726.87s-4.64-61.92-71.01-108.36c-2.04-1.43-7.29,1.57-7.72,6.2-.97,10.38,2.79,19.64,9.96,27.37,15.75,17,17.43,20.15,9.48,19.19-5.57-.67-52.31-24.97-96.1-44.78-3.69-1.67-13.1-4.85-17.54,1.45-5.75,8.18,16.43,23.1,75.61,50.87-7.25-.42-93.25-48.92-99.85-28.57-4.19,12.93,86.35,45.08,90.48,52.89-9.74,0-86.86-47.86-94.42-37-9.85,14.15,75.78,53.55,82.6,58.21-2.8,3.76-61.24-31.55-67.94-21.95-8.13,11.64,55.67,47.34,60.22,49.92,57.36,32.51,80.34,31.53,80.34,31.53l45.89-56.98Z"/>
      <path class="uuid-fb0f7dfe-3417-46e1-95f9-155941edce21" d="m1886.12,729.06c13.01,9.69,25.92,19.51,38.85,29.29l38.71,29.45c12.93,9.77,25.78,19.64,38.79,29.3,6.49,4.84,12.97,9.69,19.53,14.42,3.28,2.36,6.57,4.7,9.88,6.97,1.66,1.13,3.33,2.24,5,3.29.84.52,1.67,1.03,2.5,1.49.41.23.82.44,1.19.62.19.09.36.16.5.21.04,0,.15.05.12.04-.01,0,.02,0-.03,0-.07-.01-.14-.02-.21-.01l-2.32,1.56,20.34-50.15c6.86-16.68,13.65-33.4,20.6-50.04,6.89-16.67,13.88-33.3,20.88-49.93,7.05-16.61,14.09-33.22,21.34-49.74-6.23,16.94-12.66,33.79-19.08,50.65-6.47,16.84-12.96,33.67-19.54,50.47-6.52,16.82-13.21,33.57-19.82,50.35l-20.08,50.25-.65,1.62-1.67-.05c-.2,0-.39-.02-.59-.05-.17-.03-.26-.05-.4-.09-.28-.06-.4-.12-.61-.19-.34-.13-.63-.25-.9-.38-.54-.26-1.03-.52-1.5-.79-.95-.53-1.84-1.08-2.72-1.64-1.76-1.11-3.46-2.26-5.14-3.42-3.37-2.32-6.67-4.7-9.96-7.09-6.57-4.8-13.07-9.66-19.51-14.59-12.86-9.9-25.67-19.85-38.33-30-12.69-10.1-25.28-20.32-37.83-30.6-12.51-10.32-25.01-20.66-37.33-31.22Z"/>
      <path class="uuid-85363c84-db01-4e5e-80f3-ab32c20b0cc2" d="m1554.23,696.15c-.7-1.57,5.4,34.45,24.87,42.74,19.47,8.29,12.18,4.03,12.18,4.03,0,0-19.44-7.29-37.05-46.77Z"/>
      <path class="uuid-60c6eaaf-9b65-4b39-a28e-4de48a57808a" d="m1968.82,1224.17c-1.97,3.17,21.27,198.36,21.27,198.36h28.47l-49.74-198.36Z"/>
      <path class="uuid-fb0f7dfe-3417-46e1-95f9-155941edce21" d="m1610.19,809.79c5.07-4.14,9.82-8.47,14.39-12.95,2.26-2.27,4.52-4.51,6.67-6.87,1.06-1.19,2.16-2.34,3.23-3.51l3.08-3.64c1.08-1.17,2.04-2.44,3.05-3.68.99-1.25,2.02-2.47,2.95-3.76l2.89-3.82c.5-.62.92-1.31,1.38-1.96l1.38-1.96c1.9-2.59,3.58-5.31,5.38-8,.97-1.31,1.72-2.74,2.6-4.1.85-1.38,1.75-2.75,2.68-4.12l.28.12-2.03,4.44c-.69,1.47-1.31,2.98-2.12,4.4-1.54,2.86-3.01,5.78-4.78,8.51-3.32,5.61-7.22,10.84-11.36,15.87-4.17,5-8.82,9.59-13.72,13.88-4.92,4.26-10.13,8.2-15.8,11.43l-.14-.26Z"/>
      <path class="uuid-fb0f7dfe-3417-46e1-95f9-155941edce21" d="m1868.69,820.66c6.61-3.06,12.04-7.89,17.25-12.76l1.93-1.86,1.88-1.93c1.24-1.3,2.52-2.54,3.67-3.92,1.18-1.35,2.42-2.65,3.61-4l3.44-4.16c1.2-1.34,2.31-2.76,3.42-4.19,1.12-1.41,2.21-2.85,3.36-4.25l6.54-8.68c1.07-1.47,2.1-2.96,3.2-4.42,1.08-1.47,2.22-2.9,3.26-4.4,2.14-2.96,4.27-5.94,6.6-8.82l.26.15-5.51,9.49c-1.89,3.13-3.9,6.19-5.85,9.29-2.02,3.05-4.15,6.03-6.23,9.04l-3.33,4.37c-1.1,1.46-2.21,2.92-3.41,4.31l-3.56,4.19-3.76,4.01c-1.22,1.37-2.59,2.59-3.9,3.87-.67.63-1.31,1.28-1.99,1.89l-2.09,1.79c-.7.59-1.38,1.21-2.1,1.78l-2.19,1.67c-1.43,1.15-3,2.11-4.51,3.15-1.57.94-3.14,1.9-4.8,2.69-1.65.8-3.33,1.55-5.15,1.97l-.05-.29Z"/>
    </g>
  </g>
  <path class="uuid-dc20934a-c677-44cc-8639-304378ef4767" d="m2398.96,1440.33H102.33c0-18.19,14.75-32.94,32.94-32.94h2230.74c18.2,0,32.94,14.75,32.94,32.94h0Z"/>
  <path class="uuid-bc113138-1b2e-49da-9680-27e244a64a21" d="m284.01,593.17l-6.67-9.37c-.35-.49-.37-1.14-.06-1.66,1.12-1.89,2.15-3.86,3.08-5.9.93-2.04,1.74-4.11,2.44-6.19.19-.57.69-.98,1.29-1.04l11.45-1.09c.83-.08,1.44-.82,1.36-1.65l-4.36-45.63c-.08-.83-.82-1.44-1.65-1.36l-11.45,1.09c-.6.06-1.17-.25-1.47-.78-2.16-3.85-4.74-7.49-7.7-10.84-.4-.45-.5-1.09-.25-1.64l4.77-10.45c.35-.76.01-1.66-.75-2.01l-41.69-19.04c-.76-.35-1.66-.01-2.01.75l-4.77,10.45c-.25.55-.8.89-1.4.88-4.47-.05-8.91.39-13.24,1.28-.59.12-1.2-.11-1.55-.6l-6.67-9.37c-.49-.68-1.43-.84-2.11-.36l-37.34,26.59c-.68.49-.84,1.43-.36,2.11l6.67,9.37c.35.49.37,1.14.06,1.66-1.12,1.89-2.15,3.86-3.08,5.9-.93,2.04-1.74,4.11-2.44,6.19-.19.57-.69.98-1.29,1.04l-11.45,1.09c-.83.08-1.44.82-1.36,1.65l4.36,45.63c.08.83.82,1.44,1.65,1.36l11.45-1.09c.6-.06,1.17.25,1.47.78,2.16,3.85,4.74,7.49,7.7,10.84.4.45.5,1.09.25,1.64l-4.77,10.45c-.35.76-.01,1.66.75,2.01l41.69,19.04c.76.35,1.66.01,2.01-.75l4.77-10.45c.25-.55.8-.89,1.4-.88,4.47.05,8.91-.39,13.24-1.28.59-.12,1.2.11,1.55.6l6.67,9.37c.49.68,1.43.84,2.11.36l37.34-26.59c.68-.49.84-1.43.36-2.11Zm-74.16-13.13c-16.45-7.51-23.69-26.93-16.18-43.38s26.93-23.69,43.38-16.18c16.45,7.51,23.69,26.93,16.18,43.38-7.51,16.45-26.93,23.69-43.38,16.18Z"/>
  <path class="uuid-bc113138-1b2e-49da-9680-27e244a64a21" d="m2328.45,489.12l1.93-5.84c.1-.31.37-.52.69-.55,1.17-.12,2.34-.29,3.52-.54,1.18-.24,2.32-.55,3.44-.91.31-.1.64-.01.86.23l4.09,4.59c.3.33.81.36,1.14.07l18.29-16.31c.33-.3.36-.81.07-1.14l-4.09-4.59c-.21-.24-.26-.58-.13-.88.98-2.15,1.73-4.41,2.23-6.75.07-.31.31-.56.63-.63l6.02-1.25c.44-.09.72-.52.63-.96l-4.98-23.99c-.09-.44-.52-.72-.96-.63l-6.01,1.25c-.32.07-.64-.06-.82-.33-1.39-1.94-2.98-3.72-4.74-5.3-.24-.22-.33-.55-.23-.86l1.93-5.84c.14-.42-.09-.88-.52-1.02l-23.27-7.68c-.42-.14-.88.09-1.02.52l-1.93,5.84c-.1.31-.37.52-.69.55-1.17.12-2.34.29-3.52.54-1.18.24-2.32.55-3.44.91-.31.1-.64.01-.86-.23l-4.09-4.59c-.3-.33-.81-.36-1.14-.07l-18.29,16.31c-.33.3-.36.81-.07,1.14l4.09,4.59c.21.24.26.58.13.88-.98,2.15-1.73,4.41-2.23,6.75-.07.31-.31.56-.63.63l-6.02,1.25c-.44.09-.72.52-.63.96l4.98,23.99c.09.44.52.72.96.63l6.02-1.25c.32-.07.64.06.82.33,1.39,1.94,2.98,3.72,4.74,5.3.24.22.33.55.23.86l-1.93,5.84c-.14.43.09.88.52,1.02l23.27,7.68c.42.14.88-.09,1.02-.52Zm-17.8-36.11c-1.97-9.46,4.11-18.73,13.58-20.7,9.46-1.97,18.73,4.11,20.7,13.58,1.97,9.46-4.11,18.73-13.58,20.7-9.46,1.97-18.73-4.11-20.7-13.58Z"/>
  <path class="uuid-bc113138-1b2e-49da-9680-27e244a64a21" d="m2258.27,386.63l7.5-11.76c.39-.62,1.11-.93,1.83-.82,2.63.4,5.31.66,8.03.78,2.72.12,5.41.09,8.07-.07.73-.04,1.42.34,1.75.98l6.44,12.37c.47.9,1.58,1.25,2.48.78l49.28-25.64c.9-.47,1.25-1.58.78-2.48l-6.44-12.37c-.34-.65-.25-1.43.2-2,3.35-4.18,6.26-8.73,8.67-13.58.33-.65,1-1.06,1.73-1.03l13.91.61c1.01.04,1.87-.74,1.92-1.75l2.44-55.5c.04-1.01-.74-1.87-1.75-1.92l-13.91-.61c-.73-.03-1.36-.5-1.63-1.18-1.98-5.04-4.48-9.83-7.45-14.29-.4-.61-.42-1.4-.03-2.01l7.5-11.76c.55-.86.29-1.99-.56-2.54l-46.84-29.86c-.86-.55-1.99-.29-2.54.56l-7.5,11.76c-.39.62-1.11.93-1.83.82-2.63-.4-5.31-.66-8.03-.78-2.72-.12-5.41-.09-8.07.07-.73.05-1.42-.34-1.75-.98l-6.44-12.37c-.47-.9-1.58-1.25-2.48-.78l-49.28,25.64c-.9.47-1.25,1.58-.78,2.48l6.44,12.37c.34.65.25,1.43-.2,2-3.35,4.18-6.26,8.73-8.67,13.58-.33.65-1,1.06-1.73,1.03l-13.91-.61c-1.01-.04-1.87.74-1.92,1.75l-2.44,55.5c-.04,1.01.74,1.87,1.75,1.92l13.91.61c.73.03,1.36.5,1.63,1.18,1.98,5.04,4.48,9.83,7.45,14.29.4.61.42,1.4.03,2.01l-7.5,11.76c-.55.86-.29,1.99.56,2.54l46.84,29.86c.86.55,1.99.29,2.54-.56Zm-18.96-89.28c.96-21.89,19.49-38.86,41.38-37.9s38.86,19.49,37.9,41.38c-.96,21.89-19.49,38.86-41.38,37.9s-38.86-19.49-37.9-41.38Z"/>
  <path class="uuid-bc113138-1b2e-49da-9680-27e244a64a21" d="m136.22,1363.19l2.96-8.98c.16-.47.57-.8,1.07-.85,1.8-.18,3.6-.45,5.41-.83,1.81-.38,3.57-.84,5.29-1.39.47-.15.99-.02,1.32.35l6.29,7.05c.46.51,1.24.56,1.76.1l28.1-25.07c.51-.46.56-1.24.1-1.76l-6.29-7.05c-.33-.37-.4-.9-.2-1.35,1.5-3.31,2.66-6.78,3.43-10.37.1-.48.48-.86.96-.96l9.24-1.92c.67-.14,1.11-.8.97-1.47l-7.66-36.87c-.14-.67-.8-1.11-1.47-.97l-9.24,1.92c-.48.1-.98-.1-1.27-.5-2.14-2.98-4.59-5.71-7.28-8.14-.37-.33-.51-.85-.35-1.32l2.96-8.98c.22-.65-.14-1.36-.79-1.57l-35.76-11.8c-.65-.22-1.36.14-1.57.79l-2.96,8.98c-.15.47-.57.8-1.07.85-1.8.18-3.6.45-5.41.83-1.81.38-3.57.84-5.29,1.39-.47.15-.99.02-1.32-.35l-6.29-7.05c-.46-.51-1.24-.56-1.76-.1l-28.1,25.07c-.51.46-.56,1.24-.1,1.76l6.29,7.05c.33.37.4.9.2,1.35-1.5,3.31-2.66,6.78-3.43,10.37-.1.48-.48.86-.96.96l-9.24,1.92c-.67.14-1.11.8-.97,1.47l7.66,36.87c.14.67.8,1.11,1.47.97l9.24-1.92c.48-.1.98.1,1.27.5,2.14,2.98,4.59,5.71,7.28,8.14.37.33.51.85.35,1.32l-2.96,8.98c-.22.65.14,1.36.79,1.57l35.76,11.8c.65.22,1.36-.14,1.57-.79Zm-27.35-55.49c-3.02-14.54,6.32-28.78,20.86-31.8,14.54-3.02,28.78,6.32,31.8,20.86,3.02,14.54-6.32,28.78-20.86,31.8-14.54,3.02-28.78-6.32-31.8-20.86Z"/>
  <g>
    <g>
      <path class="uuid-c66996a4-99d2-4d70-8700-6daa6c13e429" d="m1402.4,1053.81h-249.71c-.72,0-1.3-.84-1.3-1.87s.58-1.87,1.3-1.87h249.71c.72,0,1.3.84,1.3,1.87s-.58,1.87-1.3,1.87Z"/>
      <g>
        <rect class="uuid-cb52c87c-6c38-4e76-82e2-c65833833f26" x="1345.1" y="1028.32" width="29.47" height="15.18"/>
        <g>
          <rect class="uuid-cb52c87c-6c38-4e76-82e2-c65833833f26" x="1181.28" y="925.4" width="29.47" height="118.1"/>
          <rect class="uuid-cb52c87c-6c38-4e76-82e2-c65833833f26" x="1235.89" y="997.55" width="29.47" height="45.96"/>
          <rect class="uuid-cb52c87c-6c38-4e76-82e2-c65833833f26" x="1290.49" y="910.94" width="29.47" height="132.57"/>
        </g>
      </g>
    </g>
    <path class="uuid-c66996a4-99d2-4d70-8700-6daa6c13e429" d="m1199.95,1067.76h-4.84l-.93,2.53h-1.13l3.88-10.51h1.2l3.87,10.51h-1.13l-.93-2.53Zm-.32-.88l-2.1-5.75-2.1,5.75h4.2Z"/>
    <path class="uuid-c66996a4-99d2-4d70-8700-6daa6c13e429" d="m1255.56,1064.74c.42.5.62,1.08.62,1.74,0,.54-.14,1.02-.4,1.45-.27.43-.66.77-1.18,1.02-.52.25-1.14.37-1.86.37h-3.68v-10.64h3.58c1.08,0,1.9.25,2.46.75.56.5.85,1.14.85,1.93,0,.66-.18,1.2-.53,1.61-.36.41-.81.7-1.37.86.6.11,1.11.42,1.52.91Zm-5.44-1.35h2.48c.72,0,1.28-.17,1.67-.51.39-.34.59-.81.59-1.41s-.2-1.05-.59-1.39c-.39-.33-.96-.5-1.71-.5h-2.44v3.81Zm4.35,4.49c.43-.37.65-.87.65-1.51s-.23-1.15-.68-1.53c-.45-.38-1.06-.57-1.82-.57h-2.5v4.16h2.54c.77,0,1.37-.18,1.8-.55Z"/>
    <path class="uuid-c66996a4-99d2-4d70-8700-6daa6c13e429" d="m1302.37,1061.46c.46-.83,1.08-1.47,1.87-1.93.79-.46,1.68-.69,2.65-.69,1.19,0,2.21.28,3.05.84.85.56,1.46,1.36,1.85,2.38h-1.25c-.3-.72-.77-1.28-1.39-1.69-.62-.41-1.38-.61-2.26-.61-.78,0-1.48.18-2.11.55-.62.37-1.11.89-1.47,1.58-.36.69-.53,1.48-.53,2.38s.18,1.69.53,2.38c.35.68.84,1.2,1.47,1.57.62.37,1.33.55,2.11.55.88,0,1.64-.2,2.26-.6.62-.4,1.09-.96,1.39-1.67h1.25c-.39,1.02-1,1.8-1.86,2.36-.85.56-1.87.84-3.05.84-.97,0-1.86-.23-2.65-.69-.79-.46-1.42-1.1-1.87-1.93-.46-.82-.69-1.76-.69-2.8s.23-1.98.69-2.81Z"/>
    <path class="uuid-c66996a4-99d2-4d70-8700-6daa6c13e429" d="m1363.13,1058.7c.84.43,1.49,1.04,1.93,1.84.45.8.67,1.76.67,2.86s-.22,2.04-.67,2.84c-.45.8-1.09,1.41-1.93,1.83-.84.42-1.85.63-3.03.63h-3.15v-10.64h3.15c1.18,0,2.19.21,3.03.64Zm.36,7.95c.78-.78,1.16-1.86,1.16-3.25s-.39-2.49-1.16-3.28c-.78-.79-1.91-1.18-3.39-1.18h-2.09v8.88h2.09c1.48,0,2.61-.39,3.39-1.16Z"/>
  </g>
  <g>
    <polygon class="uuid-c66996a4-99d2-4d70-8700-6daa6c13e429" points="1754 527.48 1497.67 527.48 1497.67 354.27 1501.67 354.27 1501.67 523.48 1754 523.48 1754 527.48"/>
    <polygon class="uuid-cb52c87c-6c38-4e76-82e2-c65833833f26" points="1512.1 514.01 1511.88 512.02 1554.32 507.34 1594.13 480.56 1618.06 434.36 1664.12 427.78 1694.43 385.18 1739.06 369.48 1739.72 371.36 1695.69 386.86 1665.25 429.64 1619.36 436.19 1595.67 481.93 1595.46 482.08 1555.03 509.27 1512.1 514.01"/>
    <path class="uuid-cb52c87c-6c38-4e76-82e2-c65833833f26" d="m1556.59,507.79c0,2.12-1.72,3.83-3.83,3.83s-3.83-1.72-3.83-3.83,1.72-3.83,3.83-3.83,3.83,1.72,3.83,3.83Z"/>
    <path class="uuid-a9cf8c8d-8c1f-40a1-9d03-7096ba53b300" d="m1556.59,513.02c0,2.12-1.72,3.83-3.83,3.83s-3.83-1.72-3.83-3.83,1.72-3.83,3.83-3.83,3.83,1.72,3.83,3.83Z"/>
    <path class="uuid-a9cf8c8d-8c1f-40a1-9d03-7096ba53b300" d="m1599.46,507.79c0,2.12-1.72,3.83-3.83,3.83s-3.83-1.72-3.83-3.83,1.72-3.83,3.83-3.83,3.83,1.72,3.83,3.83Z"/>
    <path class="uuid-a9cf8c8d-8c1f-40a1-9d03-7096ba53b300" d="m1628.08,488.73c0,2.12-1.72,3.83-3.83,3.83s-3.83-1.72-3.83-3.83,1.72-3.83,3.83-3.83,3.83,1.72,3.83,3.83Z"/>
    <circle class="uuid-a9cf8c8d-8c1f-40a1-9d03-7096ba53b300" cx="1668.24" cy="482.36" r="3.83"/>
    <circle class="uuid-a9cf8c8d-8c1f-40a1-9d03-7096ba53b300" cx="1710.56" cy="488.4" r="3.83"/>
    <path class="uuid-cb52c87c-6c38-4e76-82e2-c65833833f26" d="m1598.46,480.73c0,2.12-1.72,3.83-3.83,3.83s-3.83-1.72-3.83-3.83,1.72-3.83,3.83-3.83,3.83,1.72,3.83,3.83Z"/>
    <path class="uuid-cb52c87c-6c38-4e76-82e2-c65833833f26" d="m1622.54,435.27c0,2.12-1.72,3.83-3.83,3.83s-3.83-1.72-3.83-3.83,1.72-3.83,3.83-3.83,3.83,1.72,3.83,3.83Z"/>
    <path class="uuid-cb52c87c-6c38-4e76-82e2-c65833833f26" d="m1668.24,427.61c0,2.12-1.72,3.83-3.83,3.83s-3.83-1.72-3.83-3.83,1.72-3.83,3.83-3.83,3.83,1.72,3.83,3.83Z"/>
    <path class="uuid-cb52c87c-6c38-4e76-82e2-c65833833f26" d="m1698.89,386.29c0,2.12-1.72,3.83-3.83,3.83s-3.83-1.72-3.83-3.83,1.72-3.83,3.83-3.83,3.83,1.72,3.83,3.83Z"/>
    <path class="uuid-a9cf8c8d-8c1f-40a1-9d03-7096ba53b300" d="m1555.2,514.02h-43.21v-2h43.08l40.21-5.19,28.61-19.06,44.37-6.42,41.1,7.11c1.72-1.92,9.14-10.24,16.59-18.55,4.24-4.74,8.5-9.47,11.69-13.01q5.92-6.55,6.7-6.02l.72.49-.39.79-.88-.44.61.75c-.98.89-20.82,23.05-33.92,37.73l-.37.41-41.88-7.25-43.61,6.31-28.62,19.06-40.79,5.27Zm187.67-62.74l.89.45-.89-.45Z"/>
    <polygon class="uuid-e1ceee82-52c6-4323-b05b-aa281484d51e" points="1512.61 513.8 1511.37 512.23 1552.56 479.62 1595.95 493.69 1618.23 463.8 1668.47 466.23 1707.95 475.56 1738.57 432.69 1740.2 433.85 1708.8 477.81 1668.1 468.19 1619.19 465.85 1596.7 496.04 1552.96 481.85 1512.61 513.8"/>
    <path class="uuid-e1ceee82-52c6-4323-b05b-aa281484d51e" d="m1556.59,480.73c0,2.12-1.72,3.83-3.83,3.83s-3.83-1.72-3.83-3.83,1.72-3.83,3.83-3.83,3.83,1.72,3.83,3.83Z"/>
    <circle class="uuid-e1ceee82-52c6-4323-b05b-aa281484d51e" cx="1595.63" cy="494.2" r="3.83"/>
    <path class="uuid-e1ceee82-52c6-4323-b05b-aa281484d51e" d="m1622.54,464.83c0,2.12-1.72,3.83-3.83,3.83s-3.83-1.72-3.83-3.83,1.72-3.83,3.83-3.83,3.83,1.72,3.83,3.83Z"/>
    <path class="uuid-e1ceee82-52c6-4323-b05b-aa281484d51e" d="m1672.07,467.2c0,2.12-1.72,3.83-3.83,3.83s-3.83-1.72-3.83-3.83,1.72-3.83,3.83-3.83,3.83,1.72,3.83,3.83Z"/>
    <path class="uuid-e1ceee82-52c6-4323-b05b-aa281484d51e" d="m1710.75,476.87c0,2.12-1.72,3.83-3.83,3.83s-3.83-1.72-3.83-3.83,1.72-3.83,3.83-3.83,3.83,1.72,3.83,3.83Z"/>
  </g>
  <g>
    <polygon class="uuid-cb52c87c-6c38-4e76-82e2-c65833833f26" points="1247.82 819.81 1153.91 779.49 1153.91 642.42 1247.82 682.74 1247.82 819.81"/>
    <polygon class="uuid-cb52c87c-6c38-4e76-82e2-c65833833f26" points="1252.11 819.81 1346.02 779.49 1346.02 642.42 1252.11 682.74 1252.11 819.81"/>
    <polygon class="uuid-67b086d1-09d6-4902-8d4e-c9627f41fed1" points="1158.75 640.58 1249.96 680.48 1342.41 639.75 1252.11 599.13 1158.75 640.58"/>
    <g>
      <path class="uuid-67b086d1-09d6-4902-8d4e-c9627f41fed1" d="m1171.79,724.22l-75.3-34.79c-3.91-1.81-4.27-7.22-.63-9.52l56.71-35.94c1.52-.96,3.42-1.11,5.07-.39l80.31,34.88c4.09,1.78,4.42,7.45.56,9.68l-61.72,35.85c-1.53.89-3.4.98-5.01.23Z"/>
      <path class="uuid-67b086d1-09d6-4902-8d4e-c9627f41fed1" d="m1328.14,724.22l75.3-34.79c3.91-1.81,4.27-7.22.63-9.52l-56.71-35.94c-1.52-.96-3.42-1.11-5.07-.39l-80.31,34.88c-4.09,1.78-4.42,7.45-.56,9.68l61.72,35.85c1.53.89,3.4.98,5.01.23Z"/>
    </g>
    <g>
      <path class="uuid-67b086d1-09d6-4902-8d4e-c9627f41fed1" d="m1173.15,555.92l-75.3,34.79c-3.91,1.81-4.27,7.22-.63,9.52l56.71,35.94c1.52.96,3.42,1.11,5.07.39l80.31-34.88c4.09-1.78,4.42-7.45.56-9.68l-61.72-35.85c-1.53-.89-3.4-.98-5.01-.23Z"/>
      <path class="uuid-67b086d1-09d6-4902-8d4e-c9627f41fed1" d="m1329.5,555.92l75.3,34.79c3.91,1.81,4.27,7.22.63,9.52l-56.71,35.94c-1.52.96-3.42,1.11-5.07.39l-80.31-34.88c-4.09-1.78-4.42-7.45-.56-9.68l61.72-35.85c1.53-.89,3.4-.98,5.01-.23Z"/>
    </g>
    <g>
      <g>
        <path class="uuid-7a0176f1-a57b-47af-aa8c-e7690b21fc37" d="m1340.62,462.41c0-50.94-41.65-92.15-92.75-91.43-49.86.7-90.27,41.85-90.12,91.71.07,21.72,7.71,41.66,20.42,57.31,19.56,24.09,30.44,54.06,30.44,85.09v.42h81.17v-.41c0-31.15,11.11-61.11,30.66-85.37,12.63-15.68,20.2-35.61,20.2-57.32Z"/>
        <path class="uuid-33d6f94c-eaf3-4f1d-88b8-3d897e7cbe6f" d="m1327.36,466.16c0-43.55-35.61-78.79-79.3-78.17-42.63.6-77.18,35.78-77.05,78.41.06,18.57,6.59,35.62,17.46,49,16.73,20.59,26.02,64.38,26.02,90.91v.36h69.4v-.35c0-26.64,9.5-70.41,26.21-91.15,10.8-13.41,17.27-30.45,17.27-49.01Z"/>
        <path class="uuid-6f559109-868a-4edd-a63b-595e67690fec" d="m1208.95,605.52h80.45v17.35c0,13.29-10.79,24.08-24.08,24.08h-32.3c-13.29,0-24.08-10.79-24.08-24.08v-17.35h0Z"/>
        <path class="uuid-6f559109-868a-4edd-a63b-595e67690fec" d="m1273.51,476.26h-6.99c-6.89,0-12.49,5.6-12.49,12.49v9.54h-9.7v-9.54c0-6.89-5.6-12.49-12.49-12.49h-6.99c-6.89,0-12.49,5.6-12.49,12.49s5.6,12.49,12.49,12.49h16.53v104.27h2.95v-104.27h9.7v104.27h2.95v-104.27h16.53c6.89,0,12.49-5.6,12.49-12.49s-5.6-12.49-12.49-12.49Zm-32.13,22.03h-16.53c-5.26,0-9.54-4.28-9.54-9.54s4.28-9.54,9.54-9.54h6.99c5.26,0,9.54,4.28,9.54,9.54v9.54Zm32.13,0h-16.53v-9.54c0-5.26,4.28-9.54,9.54-9.54h6.99c5.26,0,9.54,4.28,9.54,9.54s-4.28,9.54-9.54,9.54Z"/>
        <path class="uuid-6f559109-868a-4edd-a63b-595e67690fec" d="m1249.18,665.35h0c-9.56,0-17.31-7.75-17.31-17.31v-17.31h34.62v17.31c0,9.56-7.75,17.31-17.31,17.31Z"/>
      </g>
      <rect class="uuid-12bfdf33-434b-48b3-aca9-ba9973f8f934" x="1235.57" y="645.52" width="35.61" height=".83"/>
    </g>
  </g>
  <g>
    <path class="uuid-657c17c0-1e89-46bf-91ff-fb6a0ba569db" d="m1206.15,298.12c11.85-14.3,18.97-32.66,18.97-52.68,0-9.62-1.65-18.85-4.67-27.43l-77.96,27.43,63.66,52.68Z"/>
    <path class="uuid-bd513a7f-1069-49ff-b899-9e7ba7452eed" d="m1126.27,242.3l-63.66-52.68c-11.85,14.3-18.97,32.66-18.97,52.68,0,9.62,1.65,18.85,4.67,27.43l77.96-27.43h0Z"/>
    <path class="uuid-bc113138-1b2e-49da-9680-27e244a64a21" d="m1184.7,183.87c-14.95-14.95-35.61-24.2-58.43-24.2-25.61,0-48.5,11.65-63.66,29.95l63.66,52.68,77.96-27.43c-4.15-11.78-10.88-22.34-19.53-30.99Z"/>
    <path class="uuid-3960685f-d773-423d-9554-a9ab77ea9b55" d="m1126.27,242.3h0l-58.43,58.43c14.95,14.95,35.61,24.2,58.43,24.2,25.61,0,48.5-11.65,63.66-29.95l-63.66-52.68Z"/>
    <path class="uuid-2652d750-2e18-4dcf-a3d8-7740609691e8" d="m1048.31,269.73c4.15,11.78,10.88,22.34,19.53,30.99l58.43-58.43-77.96,27.43Z"/>
  </g>
  <g>
    <path class="uuid-e1ceee82-52c6-4323-b05b-aa281484d51e" d="m1591.39,1239.56c-20.27,0-38.62-8.22-51.91-21.5l-32.49,32.49c21.6,21.6,51.44,34.96,84.4,34.96h0v-45.95h0Z"/>
    <path class="uuid-6f559109-868a-4edd-a63b-595e67690fec" d="m1591.39,1092.74h0v-45.95h0c-61.57,0-112.23,46.62-118.65,106.49l45.68,4.95c3.95-36.82,35.11-65.49,72.98-65.49Z"/>
    <path class="uuid-67b086d1-09d6-4902-8d4e-c9627f41fed1" d="m1675.79,1081.75c-21.6-21.6-51.44-34.96-84.4-34.96v45.95c20.27,0,38.62,8.22,51.91,21.5,13.28,13.28,21.5,31.64,21.5,51.91,0,2.67-.15,5.31-.43,7.91-3.95,36.82-35.11,65.49-72.98,65.49v45.95c61.57,0,112.23-46.62,118.65-106.49.45-4.23.7-8.52.7-12.87,0-32.96-13.36-62.8-34.96-84.4Z"/>
    <path class="uuid-cb52c87c-6c38-4e76-82e2-c65833833f26" d="m1517.98,1166.15c0-2.67.15-5.31.43-7.91l-45.68-4.95c-.45,4.23-.7,8.52-.7,12.87,0,32.96,13.36,62.8,34.96,84.4l32.49-32.49c-13.28-13.28-21.5-31.64-21.5-51.91Z"/>
  </g>
  <g>
    <circle class="uuid-bc113138-1b2e-49da-9680-27e244a64a21" cx="443.38" cy="326.77" r="107.29"/>
    <circle class="uuid-bd513a7f-1069-49ff-b899-9e7ba7452eed" cx="443.38" cy="326.77" r="87.61" transform="translate(-101.2 409.22) rotate(-45)"/>
    <circle class="uuid-bc113138-1b2e-49da-9680-27e244a64a21" cx="443.38" cy="326.77" r="60.38"/>
    <circle class="uuid-bd513a7f-1069-49ff-b899-9e7ba7452eed" cx="443.38" cy="326.77" r="34.06" transform="translate(-101.2 409.22) rotate(-45)"/>
    <circle class="uuid-bc113138-1b2e-49da-9680-27e244a64a21" cx="443.38" cy="326.77" r="10.09" transform="translate(-91.64 195.92) rotate(-22.65)"/>
    <path class="uuid-2652d750-2e18-4dcf-a3d8-7740609691e8" d="m443.38,328.27c-.51,0-1.01-.26-1.29-.74-.42-.71-.19-1.63.53-2.06l123.45-73.14c.71-.42,1.63-.19,2.06.53.42.71.19,1.63-.53,2.06l-123.45,73.14c-.24.14-.5.21-.76.21Z"/>
    <polygon class="uuid-2652d750-2e18-4dcf-a3d8-7740609691e8" points="505.1 290.2 530.98 236.75 578.23 215.79 565.36 254.49 505.1 290.2"/>
    <polygon class="uuid-2652d750-2e18-4dcf-a3d8-7740609691e8" points="505.33 289.75 564.65 292.67 605.7 261.25 565.56 253.99 505.33 289.75"/>
  </g>
</svg>